<?xml version="1.0" encoding="UTF-8"?> <svg xmlns="http://www.w3.org/2000/svg" width="146" height="120" fill="none"><g clip-path="url(#a)"><path fill="#1D1D1B" d="M115.858 72.39c.437.066 1.382.302 1.286.874-.013.06 0 .087-.065.083-.346.083-.567-.11-.87-.184-.226-.056-.46-.013-.668.026-.108.044-.216.092-.325.136-.71.296-1.438.637-2.01 1.222-.247.253-.377.541-.559.825l-.199.253c-.26.419-.23.969.004 1.366.122.21.291.323.481.45.29.192.568.388.884.528.351.14.698.28 1.049.415.628.305 1.165.641 1.724 1.065.247.183.55.497.576.816.022.314-.035.62-.199.855-.16.227-.464.38-.68.524-.083.07-.169.135-.252.205-.619.371-1.295.555-2.019.66-.42.06-.962.152-1.425-.014-.191-.07-.611-.314-.446-.589.034-.057.082-.127.151-.153.213-.074.403.075.598.1.208.014.416.027.628.036.161-.079.356-.096.551-.079.255-.079.515-.153.775-.231.403-.136 1.556-.716 1.599-1.214.069-.816-2.452-1.562-3.046-1.89-.615-.34-1.217-.772-1.594-1.41-.728-1.226.446-2.789 1.373-3.522.407-.323 1.018-.642 1.491-.851.368-.166.797-.17 1.187-.301ZM102.839 73.578c1.724.266 2.66 1.75 2.309 3.51-.104.506-.264.964-.611 1.318-.338.344-.858.602-1.278.82-.143.061-.29.123-.438.184-.091.06-.147.152-.117.27.065.232.577.472.763.616a35.552 35.552 0 0 0 3.05 2.178c.286.183.749.161.927.493.078.157.152.42-.026.546-.32.227-1.399-.712-1.69-.882-1.243-.72-2.313-1.702-3.548-2.453-.308-.183-.611-.371-.914-.554-.273-.149-.555-.24-.771-.485a1.065 1.065 0 0 1-.057-.087.338.338 0 0 1 .035-.315c.139-.196.975.18 1.235.201.199-.105.45-.083.667-.14l.585-.244c.996-.428 1.555-1.07 1.547-2.248-.005-.541-.061-1.039-.364-1.453-.603-.82-2.414-.52-3.185-.184-.247.105-.507.345-.745.42a.408.408 0 0 1-.368-.049c-.108-.083-.256-.283-.19-.427.168-.38 1.689-.96 2.122-.921.186-.088.451-.088.68-.066.126-.013.256-.03.382-.048ZM98.913 75.18c.182.104.307.205.394.406.104.244.078.54.104.816.035.157.074.319.108.476 0 .113 0 .227-.004.34.03.131.056.266.087.397l.078.803c.086 1.127.077 2.253.277 3.344.026.157-.013.327-.004.502.013.345.142.912.034 1.266-.026.083-.1.122-.186.13-.776.066-.468-1.357-.49-1.867-.03-.668-.143-1.367-.195-2.021.005-.166.005-.332.005-.502-.061-.611-.117-1.223-.178-1.838-.087-.615-.178-1.235-.264-1.85.017-.188.1-.293.234-.402ZM92.397 77.063c.88.261.957 1.514.789 2.356-.057.193-.113.385-.174.577-.104.423-.307.794-.455 1.196-.147.384-.307.737-.433 1.135l-.242.375c-.507.912-1.309 1.811-2.297 2.23-.238.1-.455.227-.719.267-1.265.179-2.314-.415-2.85-1.493-.092-.18-.053-.402-.114-.59-.554-1.614-.593-3.43-.454-5.316.013-.214.143-.358.16-.537.845.1.438.742.424 1.353.01.258.018.516.026.769l-.052.327c.026.31.057.624.087.938.07.62.07 1.2.182 1.79l.182.45c.017.109.035.222.048.331.07.288.273.66.507.873.32.284.866.406 1.325.446.156-.04.312-.075.464-.114l.433-.17c.884-.397 1.586-1.179 2.05-2.012.155-.323.311-.646.463-.97.074-.183.1-.362.208-.519.03-.052.017-.087.087-.078-.013-.275.151-.616.234-.873.23-.742.368-1.633.039-2.323-.03-.06-.135-.314-.052-.305.043-.04.09-.079.134-.114ZM73.905 79.756c-.139.009-.277.022-.416.026-.203.04-.407.079-.61.114-.27.022-.55-.061-.767.083-.308.196-.694.978-.854 1.31-.672 1.387-.75 3.618.663 4.49.49.302 1.031.376 1.672.433l.42-.118c.442-.14.889-.297 1.27-.593.316-.254.61-.542.814-.87.633-1.012.915-3.23.04-4.155-.39-.414-.845-.545-1.448-.606-.264-.026-.55 0-.784-.114Zm-.676-.951c.368.07.663.288 1.023.37.195.023.39.049.58.075.72.157 1.703.559 2.093 1.222.295.502.412 1.21.429 1.838.043 1.955-.793 3.592-2.591 4.199-.412.14-.797.28-1.257.284a3.259 3.259 0 0 1-1.598-.402c-2.088-1.148-2.076-3.675-1.1-5.688.324-.667.753-1.296 1.42-1.693.3-.188.655-.136 1.001-.205ZM60.768 79.398c.238.044 1.322.17 1.023.607-.113.166-1.196.03-1.456.053-.238.047-.481.1-.724.148-.411.11-.806.284-1.182.471-.122.044-.243.092-.364.136-.382.227-.707.593-.945.938-.126.18-.286.319-.394.51-.234.394-.282.765-.39 1.236-.048.127-.095.253-.139.38-.008.153-.013.305-.021.463-.117.148-.113.414-.143.62-.035.23.039.449.082.654.208.917 1.321 1.38 2.222 1.458l.629.057c.134-.048.342-.013.502.004l.338-.013c.182-.087.455-.087.68-.066.239-.122.603-.157.893-.13.13-.031.26-.057.39-.088.394-.118.555-.349.823.153.048.087.056.236 0 .323-.173.236-.65.17-.914.214-1.828.314-4.575.489-5.827-1.109-.568-.729-.455-1.47-.317-2.387.399-2.654 1.59-3.807 4.017-4.448.394-.118.81-.1 1.221-.184M48.425 80.563c.295.043 1.122.152 1.083.563-.346.14-.693.021-1.092-.01l-.758.027c-.762.03-1.698.367-2.404.59-.381.117-.763.135-1.105.349-.234.148-.732 2.034-.624 2.313.074.179.273.21.46.223a1.1 1.1 0 0 1 .51-.083c.135-.066.746-.105.932-.088.126 0 .251 0 .381-.008.1-.01.195-.01.295-.018.13-.044.307-.013.463 0 .403-.122 1.86.131 1.885.594 0 .06.017.122-.052.118-.19.03-.398-.018-.589-.044l-.875-.079c-.94-.026-1.811.131-2.678.24-.281.035-.641-.03-.858.153-.199.166-.437 2.117-.312 2.405.026.066.087.096.148.122.19.088.42-.021.593-.06l1.11-.21c.199-.026.372-.087.597-.07.273-.14.85-.179 1.192-.148.2-.1.524-.123.762-.1.17-.062.434-.005.629.012.12-.043.285-.013.424-.004.273.03.555.065.832.096.139.035.273.065.416.1.009.057.017.118.026.17h-.04c-.242.101-.523.049-.8.066-.512.03-.967.118-1.487.166-.19.03-.377.061-.563.092-.832.113-1.612.218-2.396.414-.325.07-.645.14-.97.205-.109.03-.278.096-.304.227-.078.297.286.755-.065.996-.108.074-.264.008-.35-.053-.55-.384-.416-2.492-.317-3.221.048-.38.243-.925.117-1.292-.07-.2-.299-.245-.45-.345-.078-.052-.174-.13-.17-.236.005-.222.243-.253.425-.248h.126c.125-.07.23-.088.307-.227.105-.197.43-1.768.325-1.952-.181-.327-.697-.017-.645-.615.277-.1.632-.092.888-.24.282-.166.381-.493.702-.585.312-.092.533.253.853.249.746-.022 1.36-.485 2.145-.415.2-.113.472-.126.724-.105.186-.013.372-.021.554-.034ZM34.319 79.742c.329.03.931.057.983.432.013.083.005.149-.065.197-.277.192-.74.022-1.057.109-.74.2-1.464.628-2.015 1.218-.073.135-.147.27-.216.406-.1.161-.239.248-.269.458-.026.179.022.419.07.58.142.516.996 1.017 1.399 1.262 1.113.672 2.99 1.641 3.449 2.999.194.584-.057 1.235-.434 1.654-.208.227-.437.37-.689.524-.26.157-.524.257-.775.406-.082.048-.16.1-.243.148-.264.07-.524.135-.788.205-1.174.284-2.379.415-3.661.428-.507.004-2.405.079-2.34-.681.078-.074.156-.148.238-.223.46-.327.802.149 1.279.188.164-.057.402.035.584.052.109-.039.295-.017.42-.004.083-.009.17-.013.256-.017.148-.061.408-.01.59.008.082-.008.168-.013.255-.017.117-.057.282-.061.425-.048.169-.083.979-.21 1.196-.192l.68-.17c.472-.14.914-.332 1.343-.568.264-.148.429-.367.645-.567 1.157-1.078-.537-2.108-1.26-2.624a96.642 96.642 0 0 1-.858-.585c-.351-.2-.706-.401-1.062-.606-.39-.253-.87-.629-1.135-1.052-.35-.563-.411-1.34-.039-1.938.121-.197.312-.319.468-.493a4.322 4.322 0 0 1 1.547-1.126c.333-.145.684-.354 1.083-.32v-.043h-.004Z"></path><path fill="#06008D" d="M30.15 1.813c.243.034.442.13.66.205.224.074.502.065.727.161.511.214.966.62 1.434.926.139.122.273.244.416.37l.46.254c.13.087.229.218.367.292.195.1.395.197.59.297.589.358 1.143.764 1.728 1.135l.867.489c.268.174.537.345.806.52.177.073.35.148.528.217.377.214.724.476 1.084.716.164.088.333.17.502.258.468.292.932.589 1.4.881l.441.472.789.628c.078.088.156.175.23.262.168.118.337.24.506.358.325.31.65.616.971.926.325.3.684.55 1.027.842.173.153.442.166.663.258l.455.327c.195.223.39.445.589.668.671.607 1.3 1.27 1.975 1.877.174.152.325.314.507.467.1.06.2.126.295.187.607.629 1.256 1.205 1.867 1.812.304.301.58.602.897.882.252.266.512.528.767.794l.182.13c.221.224.446.446.672.664.1.061.208.123.307.184l.325.314c.243.148.572.122.819.275.295.183.455.432.68.703.338.401.572.833.871 1.248.165.2.325.397.485.602.1.18.2.354.304.529.238.248.476.497.714.75.187.118.373.24.56.358.108.096.103.253.173.367.255.428.589.642 1.109.69.095-.061.247-.123.368-.079.221.079.32.406.529.52.307.165.727.148 1.04.318.142.074.233.323.407.34.23.11.442.341.615.529.173.183.39.323.572.532.173.21.26.459.42.66.13.121.26.248.39.37.074.162.147.319.225.476.265.458.577.921.91 1.336.156.166.308.336.464.497.346.476.637.983.927 1.484.121.206.29.367.429.563.056.127.113.254.165.376.22.37.446.76.697 1.122.212.297.685.218.906.475.377.441.585 1.017.814 1.532l.316.542c.026.1.057.2.083.305.177.367.398.747.502 1.148.091.35.091.725.126 1.096.03.148.06.292.087.44.034.52-.022 1.035 0 1.563l.052.611c-.013.21-.03.415-.048.625-.035.27 0 .523-.026.798-.013.162.026.31-.026.463-.264.733-.685 1.397-.949 2.13-.074.205 0 .445-.078.664-.078.222-.212.419-.33.615-.147.258-.276.546-.41.808l-.066.323c-.06.1-.117.2-.173.3-.035.119-.065.236-.1.35-.082.192-.29.297-.377.493-.1.223-.13.459-.281.65-.213.267-.524.41-.754.673-.17.192-.3.436-.516.589l-.342.2c-.108.097-.22.193-.334.289-.26.153-.454.192-.636.463 0 .017-.013.039-.018.06-.06 0-.087.018-.078-.052-.112-.091-.156-.227-.242-.344-.182-.254-.364-.511-.546-.769-.065-.174-.126-.349-.191-.523-.1-.145-.2-.289-.295-.433-.498-1.152-1.096-2.309-2.023-3.203a10.617 10.617 0 0 1-.36-.254c-.298-.257-.541-.55-.84-.799-.165-.109-.334-.218-.498-.327-.407-.292-.793-.606-1.218-.855-.286-.157-.576-.31-.862-.467-.112-.092-.22-.188-.334-.28-.493-.318-.97-.607-1.477-.895-.19-.109-.381-.161-.59-.244-.177-.092-.354-.179-.532-.27-.693-.284-1.52-.455-2.314-.511-.238-.03-.468-.061-.706-.096-.225.013-.45.022-.676.03-.169 0-.333 0-.498-.008-.282.021-.572.109-.862.135-.256.022-.477.017-.715.057-.412.065-.836.2-1.257.27-.247.022-.498.044-.745.061-.424.088-.836.275-1.26.376-.252.03-.503.056-.759.087-.134.044-.268.083-.403.127-.164.03-.329.065-.493.096-.204.052-.382.178-.585.235-.642.188-1.27.354-1.924.502l-.68.066c-.135.043-.265.087-.399.135-.312.03-.671-.096-.949-.166-.316-.078-.641-.157-.923-.301-.658-.336-1.282-.952-1.793-1.506-.178-.21-.355-.423-.533-.637-.225-.236-.49-.415-.706-.655-.148-.196-.286-.393-.434-.59-.073-.174-.13-.741.104-.842.1-.043.23-.035.347-.026.243-.096.832-.013 1.135.013.126-.048.312-.013.464 0 .537-.257 1.148.066 1.629.24.255.079.511.162.767.236.346.127.71.14 1.074.223.299.065 1.482.515 1.737.266.1-.1.074-.275-.008-.375-.109-.145-.269-.193-.412-.289-.112-.091-.23-.178-.342-.27-.23-.14-.46-.275-.693-.41l-.533-.393c-.07-.096-.135-.192-.204-.293-.19-.148-.386-.297-.58-.445-.382-.345-.832-.585-1.218-.921-.745-.694-1.49-1.392-2.24-2.086-.182-.17-.281-.376-.45-.55-.286-.293-.637-.624-.798-.996-.082-.192-.108-.375-.173-.58-.117-.354-.268-.646-.334-1.021-.043-.258.014-.555-.038-.8-.096-.414-.295-.807-.425-1.208-.043-.14-.087-.275-.13-.41.381-.088.516.183.814.314.204.043.408.091.611.135.096.057.191.11.286.162.265.122.516.222.776.353.203.105.36.258.559.384.606.371.923.546 1.698.69.17.03.303.1.494.118.342-.092.736.244.983.406.343.205.69.41 1.036.61.126.101.256.201.381.302l.927.436c.234.11.43.297.698.363.355.087.806.048 1.079-.17.182-.149.104-.415 0-.572-.178-.267-.455-.463-.685-.673l-.398-.48c-.139-.105-.278-.21-.42-.314-.403-.41-.81-.816-1.218-1.227l-.537-.37c-.208-.18-.377-.402-.568-.603-.173-.183-.381-.314-.563-.497-.19-.188-.386-.376-.576-.564-.135-.14-.23-.292-.39-.392-.165-.1-.42-.083-.568-.206l-1.538-1.536c-.242-.183-.59-.162-.819-.371-.164-.153-.22-.358-.342-.528-.182-.249-.381-.41-.576-.637-.078-.127-.16-.254-.239-.385-.125-.152-.255-.305-.377-.454a20.086 20.086 0 0 1-.32-.235c-.104-.157-.212-.314-.316-.472-.139-.165-.3-.283-.403-.471-.135-.266-.265-.533-.399-.803-.338-.51-.754-.978-.996-1.524-.083-.178-.078-.38-.13-.576-.061-.253-.187-.48-.26-.729-.135-.454-.195-.908-.317-1.361-.047-.18-.23-.433-.364-.568-.095-.087-.19-.144-.23-.27-.168-.546.161-.96.373-1.393.057-.122.143-.179.16-.336.035-.27-.294-.55-.225-.72.026-.07.156-.066.221-.053.265.044.512.262.785.34.151.044.299 0 .45.014.135.04.273.074.407.113.174.053.278.175.416.293.33.28.637.576.932.899.208.227.368.485.59.707.16.162.346.205.532.327l1.022.703c.148.092.265.223.438.28.126.039.325-.031.433-.07.061-.022.256-.044.26-.114.29.096.503.258.763.402.217.118.48.074.68.218.087.092.178.183.264.27l.546.472c.355.249.71.502 1.066.75.403.372.802.743 1.205 1.114.506.458 1.07.873 1.59 1.314.255.214.437.471.684.694.113.105.256.148.381.236.113.096.221.192.33.288.234.161.468.318.697.475.256.175.507.467.84.498.044-.035.13-.044.135-.114h.039c-.091-.275-.299-.554-.524-.76-.078-.06-.16-.126-.243-.187-.33-.366-.658-.746-1.01-1.091-.329-.319-.697-.62-1.013-.943-.247-.27-.494-.545-.737-.816-.125-.179-.216-.362-.372-.546-.498-.598-1.083-1.134-1.63-1.663l-.662-.798c-.225-.21-.455-.42-.685-.633-.07-.1-.134-.201-.2-.302-.211-.196-.424-.388-.636-.585-.269-.187-.541-.38-.81-.567-.295-.323-.585-.646-.88-.973-.186-.18-.355-.38-.541-.559l-.577-.528a19.336 19.336 0 0 0-.355-.476c-.281-.27-.559-.537-.84-.812-.113-.118-.16-.249-.252-.37-.117-.154-.25-.215-.38-.341-.096-.096-.166-.223-.278-.297-.048-.03-.065-.013-.06-.079-.278-.702-.469-.013-.833-.353l-.372-.576c-.33-.406-.641-.803-.936-1.236-.113-.135-.23-.27-.342-.406-.308-.497-.611-1.008-.932-1.48-.299-.436-.97-1.082-.923-1.632-.39-.323-.541-.969-.658-1.423-.018-.052-.074-.17-.005-.161-.047-.092-.086-.184-.134-.28-.021-.21-.039-.414-.056-.624l-.143-.436c-.03-.297-.056-.594-.087-.89-.034-.18-.151-.35-.139-.533.035-.061.083-.096.13-.135ZM114.115 96.313c.304.026.802.213.559.61-.117.188-.472.236-.645.358-.191.131-.312.323-.438.502-.307.424-.758.952-.541 1.572.164.467.485.938.871 1.283l.368.249c.988.698 2.634 1.79 2.196 3.304-.411 1.414-1.581 2.126-2.85 2.619l-.676.262-.741-.013c-.403.017-.802.022-1.096-.227-.091-.074-.109-.148-.1-.275.026-.323.316-.31.589-.288a7.43 7.43 0 0 1 .33-.009c.181-.009.355-.057.563-.039.156-.031.312-.066.468-.096.229-.066.459-.127.689-.192.883-.297 2.105-1.301 2.127-2.344.022-.965-1.231-1.58-1.867-2.074-.2-.152-.356-.336-.538-.519-.563-.576-1.031-1.065-1.105-1.912-.052-.615.048-1 .425-1.445l.273-.423c.325-.423.659-.711 1.139-.903ZM107.015 96.234c.138.027.251.057.324.184a.457.457 0 0 1 .057.305c-.052.17-.104.34-.16.507l-.234 1.453c-.152 1.048-.009 2.231.086 3.239-.017.729-.034 1.462-.06 2.195-.022.371-.039.729-.022 1.096.013.258.074.581 0 .838-.035.127-.1.24-.243.253a.394.394 0 0 1-.416-.34c-.203-1.279.096-2.75.07-4.095-.009-.253-.052-.462-.065-.694.004-.183.008-.362.008-.545-.026-.201-.052-.406-.082-.607-.035-.45-.035-1.082.052-1.523l.026-.459c.043-.235.091-.471.139-.711.047-.345.034-1.1.515-1.056v-.04h.005ZM97.752 97.75c.238.035.386.1.529.288.216.288.337 1.022.45 1.397.096.319.29.598.407.912.26.712.629 1.375.962 2.052.117.24.122.545.299.759.161.192.381.245.654.266.165-.065.438-.004.629.013-.122.673-.863.459-.876.935.07.266.135.532.204.794.152.463.251.956.425 1.414.134.358.372.729.424 1.109.018.1-.008.244-.095.292-.212.127-.446-.091-.555-.253-.411-.598-.615-1.349-.788-2.043-.095-.366-.204-1.182-.485-1.423-.178-.152-.529-.122-.754-.104l-.733.118c-.541.069-2.434.117-2.733.436-.208.223-.208.581-.3.877-.22.725-.463 1.45-.692 2.157-.096.288-.14.672-.304.921-.121.174-.394.24-.572.1-.377-.297.334-1.724.464-2.069.325-.869.585-1.803.793-2.737.125-.576.182-1.143.307-1.706.221-1.004.468-1.995.72-2.99.047-.192.169-.467.38-.515.257-.057.49.14.508.384.03.366-.195.724-.295 1.03l-.117.489a18.179 18.179 0 0 0-.485 1.785l-.16.62c-.026.174 0 .345-.013.506.125.057.255.105.411.118.109-.039.29-.018.42-.004.135-.062.308-.057.468-.044.148-.066.334-.057.507-.039.265-.131.901-.175 1.235-.144.1-.009.195-.009.295-.018.112-.074.286-.109.312-.275.043-.244-.17-.576-.256-.786-.48-1.191-1.183-2.291-1.551-3.522-.065-.227-.208-.454-.212-.698a.441.441 0 0 1 .173-.402ZM86.245 99.453c.294.035.771.231.567.616-.078.144-.671.192-.853.288-.19.126-.381.257-.572.384-.256.174-.407.484-.559.733-.75 1.231-1.035 3.304-.273 4.592.29.489.698.773 1.187 1.03.178.092.368.122.576.179 1.274.327.884-1.296 1.807-1.323.295-.008.546.14.42.468-.056.135-.476.536-.008.571.32.022.944-.257 1.234-.397.122-.061.222-.196.351-.231.152-.044.347-.005.451.109.767.89-2.435 1.41-2.742 1.58-.122.065-.213.223-.273.34-.061.171-.117.345-.182.516-.13.344-.494.951-.43 1.357.053.336.499.436.733.611.576.423.84 1.192.541 1.877-.095.214-.26.375-.415.55-.295.314-.789.69-1.222.694-.715.009-.615-.72-.182-1.03.16-.114.381-.031.567-.083.057-.035.113-.066.17-.1.212-.193.476-.633.432-.952-.1-.72-1.598-.598-1.572-1.296.013-.406.312-1.144.455-1.519.082-.227.281-.485.182-.747l-.04-.074c-.12-.175-.84-.279-1.07-.388-.385-.188-.992-.664-1.273-1.017-1.512-1.877-1.057-5.592.966-6.945.325-.223.654-.293 1.027-.393ZM79.399 100.289c.242.052.511.205.606.45.074.179.057.379.074.585.017.144.04.288.056.432 0 .253.01.506.013.755.044.572.035 1.148.061 1.741.03.428.065.856.095 1.279l-.039.463c0 .371.048.786.044 1.152 0 .271-.048.524-.044.799.018.214.03.428.044.642 0 .139 0 .279-.009.419l.121.567c.022.21-.026 1.196-.104 1.371-.03.07-.112.113-.186.122-.35.048-.585-.367-.62-.65-.025-.197.026-.406-.025-.585-.065-.218-.217-.402-.351-.59-.17-.261-.334-.523-.507-.785-.56-.659-1.114-1.314-1.677-1.973-.659-.699-1.412-1.297-2.071-1.951a19.726 19.726 0 0 0-1.243-1.135c-.152-.127-.273-.341-.451-.419-.056-.026-.19-.109-.2-.039-.147.082-.181.227-.203.405-.06.546-.017 1.1.009 1.611.017.45-.048.904-.048 1.349-.009 1.043.048 2.113-.026 3.173-.026.393-.03.768 0 1.144.013.174.07.362.035.554-.013.087-.052.175-.135.197-.784.205-.654-1.41-.62-1.869.114-1.584.075-3.059.079-4.609 0-.34 0-.711-.026-1.061-.013-.157-.03-.314-.048-.475v-.633c.017-.162.096-.323.07-.485-.04-.218-.325-.318-.325-.559 0-.117.039-.205.12-.275.326-.275 1.7 1.013 1.955 1.297.173.153.35.301.524.454.334.301.637.611.97.899.118.131.243.262.36.388.269.227.537.459.806.686.524.476 1 1.008 1.49 1.541.234.266.473.536.707.807.147.17.242.358.416.489.069.052.16.074.247.057.329-.066.216-1.602.216-1.925-.013-1.423-.16-2.798-.225-4.212-.035-.415-.07-.83-.108-1.244.013-.144.086-.249.173-.354ZM41.316 101.383c.208.017.39.078.58.096.048.174.048.397.191.537.23.227 1.85.279 2.305.318.139-.048.342-.013.502.005.157-.053.364-.013.546.004.087-.004.17-.013.256-.017.139-.048.342-.013.503 0 .164-.079.39-.048.593-.031.126-.057.269-.061.425-.048.125-.061.312-.057.468-.044.234-.126.983-.069.836.354-.095.271-1.062.38-1.326.393-1.087.043-2.223.091-3.366.009-.468-.035-1.651-.267-1.976-.079-.33.183-.381 2.684-.173 2.955.164.214.52.162.793.188.177-.057.424-.005.628.013.46.039.892.109 1.33.157.49.048 1.347.03 1.746.205.134.057.22.175.178.341-.204.763-3.969-.476-4.632.109-.23.2-.169.567-.22.873-.049.462-.1.925-.153 1.383l-.194.707c-.014.197-.026.389-.044.585-.035.219-.264 1.004-.42 1.1-.204.123-.386-.026-.59-.043-.103-.411.113-.795.213-1.17.156-.611.238-1.218.355-1.873.065-.345.165-.768.156-1.13-.021-.777-1.239-.253-1.213-.917.017-.432.602-.327.914-.297.122-.083.247-.117.29-.275.061-.214.027-.467.014-.672 0-.31-.005-.62-.01-.93.005-.366.014-.728.018-1.095-.017-.127-.203-.231-.2-.319-.367.053-.805.031-1.182.07-.45.048-.923.227-1.4.153-.16-.026-.311-.101-.385-.24-.303-.533 1.196-.607 1.508-.576.1-.009.2-.014.294-.018.083-.009.17-.013.256-.017.13-.044.312-.018.464-.005l.338-.013.333-.113c.2-.153.282-.454.45-.633ZM63.71 104.114v.044a.462.462 0 0 0-.255.279c-.134.398-.121.948-.173 1.375-.04.328-.226 1.057-.113 1.336.074.188.26.244.464.262.125-.005.251-.005.38-.009.127-.004.252-.004.382-.009.139-.052.338-.013.503.005.117-.057.35-.053.411-.201.1-.266-1.317-2.811-1.598-3.082Zm-.363-2.575c.16.026.325.039.403.192.151.266.03.646.117.943.056.192.186.345.29.515.087.148.165.354.255.524l.182.436c.174.319.347.638.516.956.26.493.477.987.78 1.454.108.166.126.353.277.502.143.139.386.148.594.166.143-.07.728-.153.702.148-.226.105-.702.388-.741.659-.104.69 2.257 3.038 1.729 3.501-.148.131-.343.03-.468-.075-.239-.2-.377-.506-.538-.763-.385-.629-.81-1.205-1.187-1.834-.138-.231-.22-.537-.446-.707a.639.639 0 0 0-.303-.113c-.733.048-1.46.091-2.197.139a.611.611 0 0 0-.416.293c-.151.266-.143.624-.217.938-.186.777-.385 1.637-.632 2.401-.074.249-.147.493-.225.742a.402.402 0 0 1-.49.131c-.165-.07-.182-.349-.169-.519.026-.358.178-.681.273-.996.147-.48.29-.947.399-1.444.069-.306.329-1.087.281-1.367-.052-.279-.459-.401-.407-.724.06-.393.607-.192.723-.747.165-.777.195-1.606.278-2.387.056-.419.121-.838.178-1.257.021-.232-.014-.432 0-.638 0-.218.207-.733.32-.894.022-.031.048-.061.07-.092.034-.035.051-.057.073-.083"></path><path fill="#F11731" d="M136.827 81.36c.528.047 1.083.017 1.351.453.039.066.087.162.026.24a.46.46 0 0 1-.32.193c-.472.052-.979-.027-1.469-.022-1.148.008-2.275.126-3.323.397-.156.04-.368-.022-.472.126-.247.345.13 1.445.091 1.938.16.607-.039.76.728.825.147-.06.407-.004.589.01.385-.158.931.017 1.352-.036.052-.008.078.013.082-.048.299.057.594.009.923.04.221-.08.762.039.797.3.035.276-.277.428-.49.472-.515.105-1.031.057-1.598.052l-.971.066c-.342.013-.888-.061-1.131.183-.221.218.005 2.27.087 2.567a.455.455 0 0 0 .139.2c.377.32 1.083.302 1.629.35.125-.048.754.052.762-.061h.039c.083.026.165.048.247.07.212-.118.455-.044.715-.022.191-.079.767-.061 1.014-.04.165-.074.394-.091.598-.074l.212-.026c.078-.022.42.017.412.079.03.1.052.427.173.436-.069.135-.134.27-.204.406-.918-.022-1.832.118-2.747.127-.506.004-1.005-.022-1.512-.044-.251-.013-.498-.03-.749-.044-.277.018-.368.323-.689.227-.234-.07-.555-.572-.698-.785-.16-.236-.017-.42-.034-.686-.018-.257-.113-.493-.148-.746-.047-.319-.047-.624-.082-.925l-.013-.73c-.078-.331-.472-.501-.481-.855v-.035c.005-.257.252-.397.338-.607.065-.157-.004-.977-.039-1.178a82.255 82.255 0 0 0-.117-.489c-.026-.183-.056-.362-.082-.546-.074-.279-.286-.593-.277-.886 0-.026.004-.052.008-.078.087-.31.403-.266.694-.24.307-.184 1.065-.328 1.455-.297a.709.709 0 0 1 .429-.087c.195-.096.477-.088.719-.066.083-.009.169-.013.256-.017.095-.01.199-.01.295-.018.099 0 .199-.008.294-.017.148-.061.408-.009.589.008.187-.056.421-.004.603-.06ZM124.978 82.648l1.292.158v.043h-.048c.026.184.502.467.645.59.525.436 1.11 1.466 1.027 2.182-.095.794-.671 1.615-1.343 2.03-.143.087-.281.122-.429.187-.117.057-.29.14-.242.302.039.117.177.183.26.266.311.31.641.52.979.777l.45.388.373.245c.074.082.152.165.23.253.156.109.337.113.45.288a.588.588 0 0 1-.043.642c-.005.004-.009.013-.013.017-.161.126-.39-.013-.516-.096-.169-.14-.333-.28-.498-.424-.841-.663-1.694-1.348-2.634-1.837-.195-.1-.356-.262-.568-.323-.086-.026-.65-.197-.663-.074-.108.192-.065.493-.082.716-.035.406-.039.833-.048 1.226-.004.175-.039.328-.021.502.052.415.108.83.16 1.244-.022.153-.143.293-.312.28-.641-.057-.62-1.568-.62-2.096.039-.323.074-.641.109-.964-.022-.201-.048-.402-.07-.607-.004-.393.039-.75.009-1.135-.03-.2-.065-.406-.091-.607l.026-.296c-.03-.21-.065-.424-.095-.633-.044-.219-.083-.441-.126-.66l-.273-.833c-.008-.118.026-.236.13-.28.212-.091.386.01.516.17.381.476.507 1.354.563 1.965.022.262-.022.62.143.825.16.196.576.253.832.275a.68.68 0 0 1 .381-.053c.087-.008.169-.013.251-.021.1-.022.2-.04.299-.061.598-.24 1.283-.681 1.603-1.266.035-.07.083-.236.174-.227-.078-.354-.022-.734-.139-1.065-.29-.817-1.586-1.471-2.439-1.092-.16.088-.316.17-.477.258-.216.157-.294.406-.624.24-.65-.327.026-.982.416-1.174.208-.1.659-.197.914-.175l.169-.026.013-.04v-.004ZM118.393 84.36c.603.318.282 1.61.278 2.27-.009.981.017 1.95-.005 2.928-.03.192-.056.388-.086.58.013.254.021.511.034.769-.008.292-.082.589-.095.881.004.184.004.367.009.55-.013.153-.031.306-.044.459.018.2.039.401.052.602-.247.087-.541.183-.697-.135-.221-.441-.061-1.31-.018-1.838.044-.659.087-1.318.126-1.981.022-.415-.022-.834.004-1.231.013-.114.026-.223.035-.332l-.052-1.065c.004-.699.056-1.349.065-2.034.009-.275.195-.336.394-.424ZM99.237 85.969c.264.1.442.179.511.48.061.27-.039.498-.086.746-.013.223-.03.446-.044.664-.03.14-.065.28-.095.423a38.048 38.048 0 0 0-.113 2.79c-.039.38-.073.754-.112 1.134-.005.14-.005.284 0 .428-.013.057-.044.079.026.087.065.149.19.227.36.245.307-.18 1.217-.315 1.624-.28.082-.008.169-.013.256-.022.112-.039.286-.017.42-.004.16-.061.355-.052.55-.035.26-.113.615-.074.932-.048.147-.043.338-.013.507.005.459-.14.979.484.424.724-.368.157-.819.048-1.248.061-.481.03-.957.057-1.438.088-.147.03-.29.065-.438.096l-.745.065c-.186.04-.368.083-.554.122-.29.083-.56.27-.884.253a.716.716 0 0 1-.356-.144c-.008-.008-.012-.013-.021-.017-.004-.009-.013-.013-.017-.017a.357.357 0 0 1-.04-.044c-.013-.018-.026-.03-.038-.048-.204-.306-.026-.799.047-1.148.052-.402.104-.808.152-1.21-.004-.523-.004-1.042-.013-1.566.017-.55.039-1.1.06-1.65.044-.266.078-.528.122-.795.017-.323-.013-.685.017-1.017.074-.126.152-.244.234-.366ZM95.252 87.781c.213.04.443.11.555.297.312.51-.026 2.03-.169 2.61-.043.18-.22.511-.234.664.06.3-.16.602-.251.864-.446 1.31-1.46 3.248-2.842 3.784-.19.075-.373.188-.577.214-.922.114-1.828-.38-2.21-1.139-.077-.166-.15-.336-.224-.502l-.104-.336c0-.362-.083-.69-.113-1.034-.022-.24.009-.454.013-.708l-.052-.602c.056.004.039.017.043-.04.06-.191 0-.388.018-.593.03-.532 0-1.013.008-1.523.022-.192.04-.384.06-.576 0-.219-.008-.511.079-.703.1-.218.42-.428.641-.28.342.227-.026 1.03-.06 1.371-.074.725-.026 1.454-.04 2.156-.021.926-.186 2.55.351 3.222.317.392.68.471 1.196.515.182-.053.364-.1.546-.157l.416-.223c.923-.576 1.672-1.942 2.067-2.916.039-.105.312-.65.216-.659.338-.65.52-1.829.616-2.614.056-.38-.208-.747.052-1.092ZM81.67 90.38c.156.191.234.427.255.676.066.912-.836 1.453-1.529 1.798-.234.118-.537.332-.806.345-.16.009-.316-.04-.377-.188-.069-.17-.021-.392-.021-.58-.009-.681.008-1.358.047-2.073v-.424c.026-.275.442-.27.62-.327.684.196 1.347.2 1.807.772m-3.25-1.017c-.121.284.156.467.121.76-.078.646-.082 1.31-.073 1.942l-.026.371c.013.227.082.454.087.694 0 .742.051 1.484.082 2.209.008.253.034.497.008.764-.017.2-.064.397-.034.589-.06-.004-.091.044-.135.07-.021.231-.013.576.13.746.066.079.182.17.295.183.702.075.36-2.505.386-2.937.008-.183.013-.423.121-.546.195-.227.607-.279.87-.397.746-.332 1.634-.76 2.132-1.466.174-.25.369-.625.369-.965 0-.83-.702-1.659-1.365-2.038-.537-.31-1.27-.398-1.958-.459-.213.1-.927.27-1.01.48Zm31.216-2.008c-.095.45-.554 1.86.005 2.039.264.087.55-.04.832-.013.112-.053.307-.03.377-.162.181-.353-.525-1.458-.806-1.698-.117-.1-.247-.14-.408-.166Zm-.177-2.815a.71.71 0 0 1 .463.72c-.013.201-.065.402 0 .576.083.21.239.376.36.577.251.475.507.947.762 1.423.213.406.364 1.025.698 1.361.104.105.295.153.459.17.126-.004.252-.004.382-.008.082-.004.169-.013.251-.017.195-.088.45-.075.611.07.043.043.056.113.13.121-.005.057.008.044-.044.04a3.29 3.29 0 0 1-.637.384c-.168.07-.363.092-.502.24a.371.371 0 0 0-.087.28c.026.305.226.61.351.885.178.393.312.786.503 1.175.108.248.216.497.325.742.138.24.797 1.121.411 1.361-.212.131-.403-.109-.52-.257-.437-.541-.727-1.257-.966-1.886l-.502-1.082c-.126-.31-.295-.995-.607-1.144-.221-.109-.771.005-1.031.009-.368.004-.741-.048-1.031.135-.264.162-.286.73-.351 1.026-.065.292-.191.563-.247.838-.078.354-.074 1.222-.446 1.349a.33.33 0 0 1-.347-.1c-.312-.402.052-1.406.173-1.851a9.3 9.3 0 0 0 .091-.245c0-.032.016-.046.048-.043.004-.062-.013-.088.052-.079-.004-.292.204-.629.095-.912-.091-.24-.355-.34-.424-.598-.013-.053-.07-.175.013-.166.043-.061.134-.079.138-.157.026-.04.096-.114.1-.162.16.04.347.035.442-.104.234-.345.195-1.096.256-1.528.069-.524.264-1.052.22-1.589-.021-.245-.311-.45-.428-.655a.324.324 0 0 1-.039-.27c.069-.245.351-.227.532-.34.104-.11.226-.197.343-.289ZM70.733 90.622c-.51.122-1.057.056-1.56.196-.246.066-.359.319-.584.415-.208.091-.472 0-.68.1-.616.297-.936 1.27-1.218 1.864-.104.223-.147.493-.216.733-.109.358-.213.72-.321 1.078-.009.184-.013.363-.017.542-.048.406-.087.825-.057 1.226.009.083.091.35.044.345.104.69.368.965.927 1.327.182.118.394.262.615.319.381.096.767.083 1.165.117l.338-.013.451-.074a6.234 6.234 0 0 0 1.035-.37c.126-.093.247-.184.373-.28.472-.267.98-.65 1.274-1.122.09-.148.13-.31.216-.463.308-.563.412-.785.468-1.466.152-.192.17-.546.226-.79.255-1.13.043-2.61-.837-3.33-.368-.298-1.117-.306-1.642-.354Zm.434-.638c.463.04.883.144 1.256.35.992.54 1.686 2.047 1.66 3.173-.018.82-.23 1.641-.425 2.379-.017.118-.04.235-.06.353a71.72 71.72 0 0 1-.421.795c-.19.349-.368.798-.659 1.078-1.156 1.13-2.755 1.724-4.458 1.462-.788-.122-2.114-.934-2.426-1.707-.59-1.453-.143-3.339.32-4.823.053-.161.118-.375.196-.537.078-.135.151-.27.23-.406.069-.288.181-.576.355-.803.463-.624 1.56-1.23 2.356-1.16.304-.184.564-.123.936-.088.096-.009.2-.009.295-.018.247-.104.576.014.845-.048ZM56.913 90.379c-.264.078-.77-.03-.935.244-.109.183-.013.51-.04.725-.147 1.191-.108 2.431-.064 3.592 0 .105.056.21.134.284.208.2.403.022.615-.013.126 0 .247.004.373.004.139-.026.277-.057.411-.087.17-.053.308-.114.486-.153.64-.148 1.278-.502 1.789-.947.234-.205.381-.493.485-.777.49-1.345-1.438-2.322-2.391-2.671-.286-.066-.572-.136-.863-.201Zm-.363-.668c.364.096.732.135 1.104.249.356.144.707.284 1.058.423.19.131.38.262.571.389.733.423 1.725 1.392 1.703 2.335-.013.554-.325 1.026-.637 1.401-.294.354-.762.537-1.148.716l-.294.174c-.486.175-1.006.297-1.508.41-.39.088-1.031.127-1.339.367-.152.114-.178.302-.195.502v.847l-.117 1.13c-.013.24-.017.717-.13.909-.06.096-.165.135-.277.13-.594-.021-.364-.61-.334-.977h-.039c.2-.336.373-1.956.156-2.248-.23-.306-.975.078-.918-.58.065-.084.09-.167.199-.219.204-.105.59-.04.728-.266.104-.175.07-.38.073-.576 0-.56 0-1.105.013-1.65l-.078-.773h.044c.034-.214 0-.428 0-.633 0-.275.052-.51-.018-.755-.052-.2-.238-.301-.329-.48-.22-.441.386-.515.637-.58.308-.084.602-.219.953-.188a.448.448 0 0 0 .126-.057"></path><path fill="#06008D" d="M53.36 103.198c-.147.101-.295.171-.347.354-.13.471-.043.995-.069 1.471l-.078.629c-.009.309-.009.619-.013.929-.017.271-.082.507-.048.755.013.109.083.267.217.275.412-.035.789-.296 1.11-.563.394-.336.84-.873.97-1.375.173-.672-.26-1.772-.776-2.156-.26-.192-.62-.266-.966-.319Zm-.74-1.628c.827.127.35.603.705.869.1.074.252.096.377.135.338.101.668.249.97.419.196.109.317.28.469.459.65.781.957 1.855.537 2.876-.147.345-.429.707-.68.982-.178.188-.962.664-.98.869.04.083.057.161.13.235l.923.629c.507.34.98.72 1.482 1.078.264.192.59.332.797.616.074.1.113.222.07.358-.044.117-.182.139-.304.13-.394-.03-.745-.44-1.035-.654-.784-.572-1.56-1.174-2.41-1.637-.233-.127-.51-.349-.818-.314-.134.013-.225.117-.277.235-.065.14-.03.302-.065.463-.065.336-.148.707-.19 1.048-.027.205-.035.506-.17.641-.082.083-.242.074-.35.04-.75-.241.134-1.873-.079-2.379-.151-.358-.979-.271-.88-.76.113-.559 1.019-.1 1.184-.755.12-.489.125-1.017.13-1.515 0-.942.017-1.942.13-2.867.047-.437.026-.908.333-1.201Z"></path><path fill="#fff" d="M118.921 24.516c-.004.056.009.043-.043.039v.04c.048.017.104.039.156.056-.026-.066-.061-.092-.113-.135Z"></path><path fill="#1D1D1B" d="M124.709 36.805c.208.026.65.096.533.406-.1.244-.659.135-.871.117l-.057-.3c.13-.075.265-.15.395-.223ZM121.638 46.031c.074.026.161.066.13.162-.026.083-.242.161-.234.039.009-.083.061-.135.104-.2Z"></path><path fill="#1D1D1B" d="M123.595 46.24c-.138.06-.472.121-.476.344l.013.21c.065-.01.13-.013.195-.022.086-.057.169-.114.255-.175.1-.07.195-.074.317-.096l.06-.026c.1-.188-.251-.218-.364-.236Zm4.823-1.738v.044l-.091-.01c.021.08.03.258.147.267.017.026.039.048.039 0 .152-.122.017-.227-.095-.305m.437-.681v.039c-.112-.009-.073-.218-.065-.301.152.074.213.144.065.262Zm1.421-.384c-.017.056-.034.109-.056.166l-.251-.022c-.1-.01-.044-.188-.018-.258.126.026.226.057.325.114Zm1.452-1.694c-.048.079-.13.21-.044.293.148.14.286-.17.295-.271l-.251-.022Zm-55.605-5.452c.01.074.061.345.213.232.117-.088-.178-.219-.213-.232Zm40.796 3.514c-.1.105-.204.214-.308.319-.16.1-.879.257-1.078.205-.087-.053-.174-.105-.26-.162-.052-.026-.226-.1-.234-.021H115c-.005.052-.031.078.034.082.031.07.113.14.109.223h-.044l-.004.04c-.546-.119-.498.06-.884.27-.147.061-.295.127-.442.188l-.264.157c-.165.048-.338-.053-.503-.022-.13.087-.264.175-.398.262-.104.03-.2.056-.299.087-.152.127-.308.253-.464.38l-1.482.471c-.208.079-1.321.803-1.356.982-.013.062-.047.162.031.166.034.048.121.07.112.136.295-.044.408-.232.659-.371.143-.079.359-.088.515-.123.074-.022.143-.039.221-.06v.043a3.31 3.31 0 0 0 .962-.245c.169-.104.33-.21.498-.314.174-.074.351-.153.525-.231.073-.057.151-.118.221-.175.247-.13.559-.105.823-.2.316-.118.502-.393.888-.358.191-.118.429-.289.641-.376.143-.061.299-.07.438-.144.19-.105.342-.292.559-.332a.731.731 0 0 1 .442.04c.108.048.234.235.359.161a.41.41 0 0 0 .035-.074c-.004-.292-.03-.284.156-.528.16-.21.048-.402-.169-.476Zm2.651.022c-.043.026-.112.074-.173.07.074.174.247.297.464.244.047-.013.095-.065.156-.061-.083-.2-.234-.223-.447-.253Zm-.766.091c-.278-.013-.113-.266.03-.327v-.044c.095.096.234.38-.03.371Zm-1.881-1.09c-.364.191-.892-.08-1.105.335-.043.075-.091.162-.06.254.134.414.593-.08.723-.105.23.017.464.03.689.048.013-.009.399-.218.399-.218-.121-.276-.355-.28-.646-.315Zm17.183 1.217c-.19.375-.052.336.26.362-.013-.222-.052-.292-.26-.362Zm-14.12-1.624c-.182.153-.455.118-.606.284-.091.1-.035.227 0 .34.173.612.29.441.81.472.221.026.446.057.663.083.182-.1.438-.1.455-.384a.215.215 0 0 0-.087-.192c-.164-.127-.411-.11-.598-.201-.268-.135-.29-.336-.637-.402Zm-.905-.76c-.065.027-.169.027-.178.11h-.039c.052.061.434.323.447.161h.043c-.039-.161-.108-.213-.273-.27Zm1.326-.222c-.044.061-.096.122-.104.205.06.092.104.18.234.188.065-.079.138-.127.147-.24a1.314 1.314 0 0 0-.277-.153Zm8.422-.105-.06.21c.056.017.108.04.16.057v-.04c.061-.109-.03-.174-.1-.227Zm2.257-.31c-.099.118-.259.201-.381.289l-.463.414c-.126.096-.282.162-.386.288-.121.153-.026.428-.121.616-.087.166-.334.21-.403.38-.022.148-.039.292-.057.44-.056.297-.216.681-.169.996.022.174.165.27.269.406.035.06.069.126.1.187.186.27.481.459.797.533.199.048.368-.157.52-.249.143-.087.299-.1.437-.179.161-.096.239-.253.39-.358.169-.122.369-.175.542-.327.091-.11.182-.219.273-.323.095-.083.191-.166.29-.25.078-.113.152-.222.226-.335.16-.162.398-.266.541-.454.147-.192.13-.471.256-.681.099-.175.433-.42.364-.66-.018-.06-.096-.104-.148-.121-.238-.088-.472.065-.732-.014-.221-.07-.307-.314-.528-.375-.312-.087-.542.022-.793-.009-.122-.043-.243-.087-.364-.126-.156-.04-.308-.061-.46-.087Zm-24.288-2.226c-.1.25.061.262.048.385l.125.013c.035-.048.07-.123.139-.114a.503.503 0 0 0-.312-.284Zm22.447 1.642c-.035.083-.069.166-.104.244.082.048.173.1.286.11.035-.049.074-.123.134-.114-.069-.157-.151-.192-.316-.24Zm-2.17-.192c-.018.065-.109.331-.031.336v.043c.065 0 .243.053.251-.021h.044c-.018-.219-.052-.297-.264-.358Zm-4.095-.319-.008.083c-.07 0-.13.1-.191.135l-.204.04v-.04c-.134-.013.074-.284.161-.327v-.04c.078.049.16.1.242.149Zm2.604-1.89c-.004.065-.052.21.026.214v.04l.204.017v-.04h.043l.013-.17-.087-.009c-.065-.017-.134-.035-.199-.056m-16.208-2.274c-.035.283.299.41.329.074-.112-.03-.221-.053-.329-.075Zm5.71.078c-.052.052-.108.157-.182.153.143.249.403.21.429-.087l-.247-.066Zm8.886-2.99c-.065-.004-.065.03-.091.079-.151-.014-.195-.14-.186-.271.143.04.199.066.277.192Zm-35.15-3.649c-.078.113-.182.354.052.38.117.013.16-.105.26-.096 0-.057.017-.04-.039-.044-.056-.13-.151-.188-.273-.24Zm38.798 2.824-.299.066c-.324.148-.593.397-.905.567-.108.035-.212.074-.316.11-.13.082-.26.17-.39.252l-.481.184c-.1.06-.386.358-.477.349.048.13.187.231.213.37-.005.22-.013.437-.018.656.061.65.78.798 1.365.85.113 0 .225-.008.338-.012.191-.088.446-.044.676-.022.29-.118.598-.131.879-.262.36-.166.633-.48.919-.738.147-.113.294-.231.442-.345.203-.21.593-.79.485-1.126-.199-.61-1.079-.663-1.651-.75-.255-.044-.494-.123-.78-.149Zm-34.435-9.939c-.312.144-.672.166-.983.314-.191.118-.382.24-.568.358-.22.075-.442.079-.65.184-.208.1-.268.388-.433.537-.104.078-.204.157-.308.235-.117.11-.23.214-.35.323-.144.088-.317.079-.438.21-.226.231-.351.585-.62.79l-.45.301c-.152.153-.308.31-.464.463-.19.17-.442.214-.576.454-.009.021-.013.048-.026.07-.044.24.212.554.307.759.026.135.061.275.087.41.026.232.485 1.262.676 1.362.07.035.169.022.234.005.299-.092.511-.389.823-.459.165-.017.325-.039.49-.056.164-.035.329-.075.49-.11.168-.026.324 0 .489-.056.247-.092.528-.433.806-.41l.013-.127c-.03-.022-.477-.34-.312-.323.13-.123.64-.393.823-.35.121.031.19.14.33.153l.008-.083c.052-.104.07-.253.147-.34.121-.131.368-.096.455-.262.056-.11.043-.196.043-.319 0-.462.057-.676.468-.816.182-.061.347-.126.564-.109.16-.079.337-.061.407-.27.078-.236-.017-.485-.017-.716V18.81c-.014-.122-.04-.253-.126-.345-.277-.31-.901-.345-1.343-.384m-.022-.724c-.035.083-.07.166-.108.244.052.022.125.026.117.096.086-.022.173-.04.255-.061-.03-.179-.095-.223-.264-.28Zm27.542-3.209c.52.079.321.537.624.563.468-.493 1.053.393 1.326.673.139.104.273.214.416.318.126.123.411.646.411.817 0 .279-.277.606-.502.729-.056.03-.186.065-.195.14h-.039c-.004.052-.017.034.035.038.19.149.381.075.623.097.091-.049.226-.08.325-.04.312.114-.043.733-.043.952-.004.266.264.45.16.72-.008.017-.013.03-.021.044-.169.292-.598.261-.767.523-.113.17-.095.424-.139.633-.03.144-.312.72-.411.83-.13.144-.421.008-.512.218-.121.275.169.546.122.834-.048.3-.538.397-.715.58-.091.092-.082.236-.126.35-.078.196-.216.292-.247.545-.013.083-.03.166-.095.218a.771.771 0 0 0-.043.03c-.247.132-.633-.396-.949-.423-.169.367.177.332.229.59.048.257-.333.55-.541.61-.134.04-.273.018-.42.005v.044l-.044-.005c-.008.398-.034.983-.515 1.044-.161.017-.36.017-.473.13-.186.18-.199.55-.45.664-.238.105-.39-.11-.637.127-.095.104-.191.205-.286.31-.143.122-.29.213-.377.388l-.013.24c-.017.135-.078.214-.156.31-.173.218-.563.253-.793.388-.151.088-.225.25-.372.328l-.503.118c-.117.07-.234.14-.355.205-.234.091-.468.188-.702.284-.152.07-.273.196-.433.248-.312.1-.672.022-.932.245-.173.148.169.419.165.572-.005.161-.122.283-.213.392l-.307.323-.312.223c-.36.371-.654.777-.958 1.178-.099.131-.303.219-.32.406-.208.066-.342.175-.533.288-.139.08-.282.097-.399.219-.312.305-.819 1.196-1.252 1.318-.169.048-.355-.013-.541-.03.008.091.017.174.078.244.13.14.701.292.927.31.286-.192.472-.21.858-.18.104-.06.208-.121.312-.187-.031-.065-.234-.445-.13-.436l.039-.044c.242-.214.589-.057.883-.122l.325-.184c.152-.056.304-.113.451-.174.212-.096.386-.249.589-.38.013-.009.026-.013.039-.022.126-.043.26.009.39.022.16-.275.321-.515.256-.873-.005-.013-.005-.026-.009-.04h.043c.191-.248.611-.025.858-.17.126-.095.252-.187.373-.288.247-.143.515-.2.745-.37.26-.193.29-.498.646-.642.195-.079.385.065.593.013.126-.03.234-.131.342-.2l.447-.223c.117-.07.229-.145.342-.219.156-.06.377-.013.529-.083.298-.144.472-.475.792-.606.208-.088.529.122.798.026.26-.092.511-.21.758-.323l.255-.183c.165-.105.377-.105.59-.088.164-.109.407-.135.498-.349l.065-.266c.017-.057.087-.11.095-.175.143.066.295.127.438.188.078-.009.156-.096.225-.088-.017-.082-.065-.47 0-.466.321-.254 1.174.183 1.023-.45a.575.575 0 0 1-.013-.057h.039c.117-.074.277-.048.42-.065.177-.053.359-.1.533-.149.147-.013.294-.021.442-.035.247-.07.277-.34.485-.45.195-.104.446.07.658.031.265-.056.434-.266.663-.401.217-.131.533-.118.815-.092.338-.118.992.131 1.373.166.165-.092.486-.113.672-.026.281.122.476.366.71.567.256.232 1.084.59 1.049 1.026.052.35.199.707.247 1.052l-.039.41c.026.24.138.555.021.79-.047.092-.186.157-.268.214-.052.035-.165.149-.23.144.022.14.026.376-.052.498-.134.21-.39.218-.55.393-.16.17-.23.38-.351.576-.143.222-.658.777-.905.877-.243.096-.499-.319-.707-.052-.277.345.533.353.507.663-.316.057-.489.223-.767.31-.429.136-.455-.092-.797.319-.047.056-.147.152-.156.235-.039.428-1.607.93-1.967 1.135-.16.092-.208.284-.359.389-.213.153-.473.157-.698.28-.173.09-.329.279-.502.366-.282.113-.568.231-.845.345-.425.296-.828.606-1.114 1.03-.385.58 1.105.807 1.135.48.408.192.542.218.936-.035.052-.035.113-.122.173-.118-.052-.144-.268-.292-.255-.445l.082.009c.334-.118.784.06 1.023.231.034.026.043.044.052-.009l.281-.21c.312-.152 1.326-.318 1.404-.702.004-.205.004-.415.009-.62-.035-.118-.065-.24-.1-.358.204-.1.407-.196.607-.297.13-.07.238-.21.381-.257.195-.074.394-.022.606-.061.13-.026.217-.149.364-.144l.412.078c.1-.06.36-.266.485-.253.598.14.884.218.966-.467h.039c.559-.28 1.118.232 1.66.28.329-.1.645.161.91.266.143.052.307.078.433.161.173.118.199.35.359.507.122.113.278.152.421.235.143.114.286.227.429.336.225.184.268.428.437.642.264.34.966.973 1.044 1.397.035.188.009.55-.078.724-.065.127-.225.223-.32.332l-.637.864c-.061.057-.16.127-.243.118-.082-.017-.407-.157-.416-.078h-.043c-.004.235.074.362.16.563h-.039c-.095.126-.251.288-.416.314-.108.022-.212.04-.316.061-.13.087-.147.27-.256.384-.138.14-.316.087-.454.201l-.486.528c-.039.03-.086.061-.147.057-.095-.105-.498-.34-.646-.354a.741.741 0 0 1-.156.284l-.485.288c-.125.131.035.31.187.323.125-.126.623-.41.792-.397v.044c.044.157.035.331-.104.432-.316.231-.45.017-.719.1-.117.035-.169.2-.277.275-.143.04-.282.083-.429.122-.117.053-.169.192-.251.288l-.286.21c-.057.057-.113.109-.169.166-.161.1-.325.2-.49.305-.156.114-.299.27-.476.336-.299.1-.672.088-.949.236-.295.153-.572.336-.849.502-.113.066-.217.166-.347.192-.377.066-.585-.506-.698-.515v-.044c.109-.043.256-.104.325-.2.074-.105-.039-.546-.177-.568-.139-.022-.252.284-.485.301-.46.035-1.127.162-.876.83.065.166.23.331.213.523.06.022.208.031.199.105.117-.244.221-.58.243-.868l.082.008c.087.075.507.441.498.55-.004.07.009.258-.061.25v.038c-.251 0-.641.027-.814.188-.117.11-.182.288-.351.35-.368.135-.793.139-1.17.266-.247.078-.429.353-.663.471-.203.079-.403.161-.606.24-.152.022-.299.04-.447.061-.121.066-.242.127-.368.192-.169.061-.394-.043-.429-.214-.086-.427.451-.58.759-.585.164 0 .225.158.398.136a.218.218 0 0 1 .056-.022c.113-.223-.584-.524-.558-.856h.039c.229-.122.584-.213.71.088.039.087.035.21.13.266.169.096.316-.035.477-.022v-.04c-.169-.374-.174-.584.125-.872.139-.135.252-.197.473-.175.177-.104.42-.174.524-.384.138-.288-.226-.318-.416-.332-.052 0-.087.022-.078-.043h-.039l.013-.175.082.009.893-.249c.134-.083.264-.161.398-.24.161-.074.325-.148.49-.218.294-.131.602-.367.975-.188.143.07.195.258.264.384.143.262.494.358.78.384.078-.344-.087-.868.091-1.113.203-.275.398-.275.693-.388.069-.04.143-.074.217-.114a8.12 8.12 0 0 0 .307-.083c.109-.065.152-.183.234-.27.226-.249.75-.66.693-1.043-.034-.232-.294-.367-.437-.533-.134-.21-.269-.415-.403-.624-.169-.45-.438-.856-.49-1.344-.004-.057.035-.127-.03-.131a.959.959 0 0 0 .169-.293c.069-.222.017-.463.043-.707.031-.319.26-.79.13-1.082-.026-.057-.043-.14-.108-.145.017-.07.091-.288-.017-.296-.039-.031-.078-.083-.083-.01-.091.044-.151.123-.221.193-.169.153-.372.092-.598.074-.026.057-.099.205-.017.21.1.087.269.179.173.327a.195.195 0 0 1-.03.035c-.069.07-.255.074-.346.1-.148.061-.299.127-.447.188-.134.035-.264.066-.403.1-.169.075-.26.262-.411.367-.174.122-.351.162-.542.245-.173.07-.32.17-.494.222-.338.096-.637-.096-.914 0-.225.07-.329.301-.55.397-.282.123-.611.118-.906.214-.338.14-.68.275-1.018.415-.173.113-.342.227-.515.34l-.507.149c-.195.06-.377.183-.564.275-.095.03-.195.06-.294.096-.295.17-.585.34-.875.51-.213.075-.425.144-.642.214-.472.232-.948.463-1.421.694-.325.096-.65.192-.974.284l-.512.288c-.338.122-.689.18-1.018.328-.334.148-.628.331-.975.44-.32.1-.658.136-.975.245-.359.126-.654.314-1.039.375-.156.013-.317.022-.473.03-.559.114-1.863.603-2.387.402-.273-.105-.446-.414-.719-.537-.234-.109-.594-.152-.693-.423-.048-.122.047-.227.151-.28.282-.157.988-.24.837-.763-.044-.149-.221-.28-.204-.445.273-.114.585-.14.849-.293.178-.13.355-.257.533-.388l.472-.048c.113-.048.226-.096.343-.144.117-.018.233-.035.35-.048l.243-.092c.243-.066.433.183.672.11.151-.049.143-.232.247-.315.138-.11.32-.079.476-.14.074-.03.178-.166.243-.161 0-.149.065-.24.073-.376l1.144.367c.126 0 .208-.122.308-.114-.082-.17-.251-.296-.316-.462-.126-.345.277-.677.58-.664.212 0 .347.166.572.188.199-.07.472.078.654-.052.152-.114.113-.367.234-.507.217-.257.585-.615.94-.606.161 0 .321.091.477.052.204-.048.277-.354.511-.332.208.018.312.703.819.75.208-.165.737-.274.815-.444.017-.044.052-.07-.013-.079v-.044c-.195-.021-.676-.074-.555-.38.026-.06.55-.523.615-.558l.429-.157c.234-.157.368-.493.676-.607.169-.065.355.096.533.114.386-.223.767-.11 1.226-.075.134.01.26-.048.381-.039v-.04c-.065-.121-.502-.933-.377-.924.113-.184.312-.227.477-.358.117-.1.204-.245.355-.302.122-.048.226-.013.36 0 .208.563.446.223.619-.126.061-.118.122-.236.178-.354.542-.196.815-.69 1.486-.633.078-.052.16-.06.234-.13l.217-.31c.125-.14.472-.367.671-.35.018-.1.035-.205-.034-.283-.273-.306-.624-.319-.949-.524-.161-.1-.243-.288-.386-.41-.186-.162-.407-.236-.567-.415-.169-.192-.217-.493-.304-.72-.073-.144-.147-.284-.212-.424-.143-.34.321-.672-.017-.964-.109-.096-.23-.153-.382-.127-.134.048-.264.1-.398.148l-1.183.485c-.13.04-.26.083-.39.122l-.52.066c-.199.074-.351.235-.541.331-.117.035-.234.066-.356.1-.121.07-.242.145-.364.215-.143.048-.285.096-.424.148l-.533.327c-.602.336-1.235.59-1.863.86-.191.066-.377.127-.563.192-.239.123-.438.34-.672.472-.264.144-.537.179-.797.314l-.754.563c-.351.18-.749.249-1.096.42-.264.126-.459.379-.715.519-.29.152-.606.266-.905.405-.122.07-.243.14-.36.21-.191.07-.381.144-.572.214-.29.14-.516.366-.806.493-.247.061-.489.122-.732.18-.087.047-.178.095-.264.143-.117 0-.234 0-.351.009-.135.044-.269.083-.403.122-.277.018-.559.03-.836.048-.187.026-.373.057-.564.087-.177 0-.359-.008-.541-.017l-.438.092c-.125.008-.251.021-.377.03-.641.135-.658.336-.641.974 0 .056.026.17-.043.165v.04c-.338-.061-.342-.153-.581-.323-.186-.131-.554-.267-.355-.585.121-.197.416-.14.537-.336.091-.149.078-.34.091-.524.061-.72.451-.51 1.001-.463.004-.056-.009-.044.048-.04l-.052-.383c.121-.079.225-.218.359-.262.174-.018.347-.03.525-.052.073-.031.129-.149.207-.145-.017-.126-.03-.257-.047-.384.329-.187.619-.41 1.04-.375.195-.131.325-.192.433-.419.009-.017.022-.03.026-.048h-.043c.117-.175.221-.367.402-.489.187-.13.434-.148.585-.323.091-.11.1-.262.161-.393.069-.161.212-.24.299-.388.047-.096.095-.188.143-.28.03-.043.58-.506.619-.523.13-.057.295-.035.399-.14.13-.131.104-.35.169-.52l.195-.31c.26-.349.827-.79 1.234-.903.187-.057.395-.017.581-.074.178-.079.355-.157.529-.24.338-.136.619-.59.992-.633.212-.026.398.083.615.1.139-.083.433-.174.451-.384-.109-.091-.247-.231-.399-.244l.009-.083c.147-.04.29-.074.433-.114.108-.008.217-.021.321-.03.069-.022.125-.118.195-.114-.026-.52.545-.986.918-1.261.139-.083.277-.166.412-.249.273-.214.45-.485.697-.698.117-.079.23-.157.347-.232.19-.157.325-.349.502-.51.247-.223.533-.354.772-.563.186-.21.376-.42.563-.629.177-.192.403-.293.576-.498.139-.17.212-.384.316-.576.117-.135.23-.27.347-.406.1-.21.204-.423.303-.633.1-.161.303-.2.42-.349.104-.14.083-.362.165-.51.152-.245.303-.494.455-.738.308-.703.303-2.615-.39-3.012a.489.489 0 0 0-.273-.052c-.152.065-.303.126-.455.192-.199.039-.78-.03-.884.07a.144.144 0 0 0-.047.091c.104.092.29.267.229.424-.078.21-.381.122-.52.248-.238.223-.377.446-.546.716-.077.079-.151.162-.229.24-.048.114-.091.227-.139.336-.069.158-.173.275-.199.459-.087.558.541.764.996.807a.922.922 0 0 1 .425-.048c.806-.384.39.991.052 1.166-.13.065-.308.06-.451.078-.459.057-.662-.057-.909-.44l-.182-.315-.33-.266c-.208-.214-.316-.506-.411-.768-.096-.25-.074-.467-.078-.751-.009-.197-.074-.393-.009-.594.065-.096.13-.192.191-.292a7.456 7.456 0 0 1 1.113-1.318c.195-.18.524-.28.654-.537.048-.096.039-.271-.099-.284-.2-.018-.511.074-.676.17-.087.061-.169.122-.256.184-.255.104-.498.144-.745.292l-.455.354c-.29.135-.654.222-.918.405-.213.149-.351.35-.542.507-.121.06-.238.126-.355.188-.113.091-.23.187-.338.279-.113.052-.225.109-.334.161a5.086 5.086 0 0 1-.229.219c-.213.117-.486.096-.689.213-.104.088-.208.175-.312.267-.239.13-.481.266-.719.397-.343.27-.62.567-1.014.72-.135.053-.295-.03-.425.009-.117.035-.112.218-.177.305-.083.11-.182.206-.295.293-.243.17-.511.105-.741.24-.165.1-.199.27-.321.397-.173.131-.342.262-.519.389-.174.117-.399.117-.585.23-.265.158-.477.416-.75.55-.134.045-.269.084-.403.123l-.624.59c-.182.244-.277.532-.554.724-.239.162-.516.28-.759.44-.16.145-.32.289-.485.433-.286.183-.598.266-.892.467-.321.214-.572.52-.884.75-.429.32-.91.599-1.365.874-.104.074-.204.152-.307.227-.135.06-.269.126-.399.183l-.611.42c-.295.139-.585.278-.88.418l-.714.236c-.187.091-.442.415-.603.567-.203.153-.407.31-.615.463-.2.1-.394.205-.593.305-.17.066-.351.088-.494.206-.13.104-.195.27-.3.388-.238.266-.918.795-1.251.764-.148.192-.975.537-.993.76-.299.021-.437.23-.662.41-.178.13-.356.257-.533.384-.135.07-.269.14-.399.214-.156.126-.238.305-.36.458-.112.105-.234.21-.35.31-.074.087-.143.175-.213.262-.138.144-.312.157-.459.28-.117.121-.23.248-.347.37l-.671.494c-.351.279-.654.593-1.018.864-.065.048-.572.244-.555.035h-.039c.091-.184.182-.363.273-.537.082-.28.056-.598.169-.86.065-.162.178-.24.264-.389.122-.205.26-.445.325-.676.057-.2.087-.389.156-.576.074-.149.152-.297.23-.45.108-.38.212-.75.268-1.161.057-.436.052-.886.191-1.292.165-.498.507-.65.832-1.03.295-.354.442-.629.81-.93.234-.192.702-1.567.958-1.545-.048-.162-.126-.367-.083-.55.057-.244.26-.371.364-.576.19-.437.382-.869.572-1.305.087-.25.013-.48.056-.742.035-.236.235-.542.17-.79-.066-.227-.313-.393-.477-.157-.095.126-.091.31-.147.467-.061.178-.494.742-.676.772-.061.009-.122-.013-.126.052h-.043c-.026.131-.04.25-.143.337-.256.227-.732.244-1.01.458l-.75.624c-.095.11-.077.27-.207.35-.143.082-.356.052-.516.104-.156.07-.307.135-.46.205-.194.053-.389.105-.584.162-.156.087-.312.179-.472.266-.16.026-.667-.03-.797-.096-.14-.122-.282-.24-.42-.358-.235-.153-.542-.175-.702-.428a2.246 2.246 0 0 1-.247-.528c-.113-.362-.178-1.14-.568-1.305a.267.267 0 0 0-.256.044c-.073.104-.143.205-.22.305-.096.083-.191.17-.282.253-.117.114-.187.253-.312.367-.16.14-.351.166-.494.332-.143.161-.173.375-.338.528-.412.37-.893.668-1.265 1.078-.074.131-.152.262-.23.393-.095.065-.195.13-.294.196-.17.153-.26.354-.43.515-.134.127-.311.197-.446.337-.164.165-.25.388-.437.55-.303.266-.659.436-.975.645-.1.092-.204.18-.308.271-.242.175-.476.354-.719.533l-.182.244c-.182.162-.364.327-.546.493-.13.18-.143.424-.264.603-.134.196-.464.148-.555.344-.086.188.035.38.035.577 0 .227-.104.489-.173.698-.147.415-.464.764-.602 1.178-.035.367-.065.73-.1 1.092-.056.153-.113.305-.17.454-.025.279-.047.558-.073.838-.056.205-.16.362-.19.58-.044.363-.083.725-.126 1.092.009.157.022.31.035.467-.018.096-.04.196-.057.292-.008.179-.013.362-.021.541-.022.149-.1.297-.1.463.039.148.074.297.108.44 0 .28-.008.564-.013.843-.039.232-.082.467-.121.699.056.113.117.227.178.344.069.223.021.585.017.83 0 .166-.087.283-.156.41-.078.131-.087.38-.087.541.026.253.048.511.074.764.022.1.052.205.074.31-.065.048-.135.157-.221.148v-.043c-.096-.184-.317-.507-.525-.192-.134.196 0 .38-.043.598-.043.174-.19.314-.247.497-.047.184.022.319-.013.498-.108.297-.216.598-.325.895-.143.327-.74.61-1.018.895-.121.122-.134.288-.29.392-.182.118-.42.1-.594.267-.078.126-.156.248-.238.375-.139.197-.49.506-.693.646-.148.096-.568.236-.75.223-.013.14 0 .318-.082.419-.152.161-.377.122-.542.266-.22.192-.316.463-.541.655-.19.161-.42.161-.624.283-.204.118-.225.367-.416.511-.178.11-.355.223-.533.332-.121.057-.26.074-.373.161-.082.088-.164.17-.246.258-.347.301-.715.567-1.136.703-.32.104-.32-.201-.468-.214.013-.026.03-.053.044-.083.017-.03.034-.066.056-.096.134-.205.364-.227.555-.345.117-.1.238-.2.355-.306.108-.06.212-.122.32-.183.226-.148.338-.397.516-.59.19-.209.442-.33.633-.532.307-.327.29-.768.572-1.034a.455.455 0 0 0 .047-.04l.147-.091a.682.682 0 0 1 .33-.03c.182-.066.416.06.58-.053.113-.079.13-.214.2-.332.095-.113.19-.222.281-.336.17-.105.343-.205.507-.31.1-.153.195-.305.29-.458.191-.205.377-.41.564-.62.138-.1.273-.196.411-.297.104-.096.2-.192.3-.288.12-.07.242-.144.363-.214.13-.122.204-.297.308-.432.203-.262.476-.515.598-.825.069-.397.134-.799.203-1.196.122-.506.442-1 .434-1.571 0-.066-.026-.301.047-.297.052-.214.186-.38.234-.576v-.424c.048-.55 0-1.069-.026-1.614-.013-.197.108-.341.117-.537.009-.25-.13-.437-.125-.686 0-.349.013-.781.117-1.087.082-.183.16-.362.242-.54.035-.189-.074-.32-.104-.485-.008-.267-.022-.533-.035-.8.022-.305.087-.588.165-.872l.156-.541c.043-.123.091-.25.139-.371.039-.254-.009-.502.065-.751.065-.218.26-.397.338-.62.082-.236.073-.502.273-.668.12-.1.32-.083.463-.135.078-.03.234-.162.303-.157 0-.057.018-.044-.038-.048l.008-.083c-.143-.07-.394-.096-.476-.249-.104-.183.073-.397.143-.554l.181-.511c.14-.21.282-.419.42-.624.092-.153.148-.34.287-.463.277-.188.563-.38.84-.572.23-.2.407-.484.676-.672.16-.074.316-.148.481-.227l.316-.249c.226-.113.494.092.702-.056.368-.262.312-.9.546-1.044l.208-.065c.065-.022.113-.087.186-.083-.017-.24.104-.345.286-.445.048-.026.078-.074.135-.07 0-.58.23-.533.719-.489v-.04l.043.005v-.126c0-.192.04-.41.26-.41.156 0 .295.07.446.017.234-.088.278-.367.395-.546.117-.113.23-.227.342-.345.078-.144.048-.314.108-.476.1-.126.208-.257.312-.384.096-.082.186-.166.277-.248.13-.066.317-.044.416-.162.13-.166.061-.44.217-.59.169-.16.42-.095.624-.156.139-.088.282-.175.416-.258.173-.096.372-.1.515-.262.026-.039.057-.078.087-.118.065-.13.095-.279.204-.375.173-.157.416-.196.615-.292.277-.14.377-.494.412-.782.008-.078.025-.214.108-.205.13-.035.255-.065.381-.1.225-.079.39-.205.607-.319.078-.035.16-.07.242-.105.195-.126.03-.471.208-.628.234-.214.49-.262.78-.336.221-.057.45-.17.65-.28.217-.113.373-.331.546-.497.247-.24.91-.476 1.248-.48.602-.01.216.589.78.641.112-.043.29-.017.42-.004.61-.148.433 1.17.468 1.519.052.332.112.668.164.995 0 .275-.16.506-.143.79 0 .162.087.301.13.445.074.24.139.576.1.847l-.065.415c0 .118.082.218.065.349-.048.375-.286.82-.416 1.165-.052.288-.108.577-.156.865-.052.214-.195.388-.255.585-.026.148-.057.296-.083.445-.108.314-.312.401-.446.65-.078.21-.152.424-.23.633-.212.437-.533.838-.81 1.231-.048.1-.095.2-.147.301l-.23.262c-.065.114-.126.231-.19.35-.066.056-.135.108-.2.165-.355.35-.676.685-.849 1.148-.07.17-.048.384-.07.576-.03.087-.056.175-.086.258-.052.218-.1.44-.147.659 0 .135 0 .275-.009.414-.056.088-.108.175-.165.262-.025.127-.047.254-.069.38-.06.175-.234.319-.256.51-.013.132.1.258.23.272v-.044c.217-.061.585-.197.72-.38.09-.161.186-.323.277-.48.108-.096.22-.188.329-.28.108-.122.195-.27.303-.397.152-.179.373-.179.542-.318.121-.1.147-.27.247-.393.134-.166.329-.288.498-.424.139-.109.312-.122.472-.192l.55-.3c.178-.092.373-.123.542-.24.16-.123.264-.328.412-.48.212-.145.429-.293.636-.437.17-.149.278-.328.468-.459.27-.17.538-.34.802-.51.143-.027.29-.057.433-.079.295-.087.563-.288.815-.484.22-.175.147-.507.377-.66.151-.1.355-.065.524-.126.295-.105.606-.332.871-.485.32-.187.615-.397.927-.589.165-.074.325-.148.485-.223.195-.135.386-.27.581-.401.203-.114.771-.148.853-.345.026-.07 0-.24.065-.236.152-.257.429-.296.646-.48.138-.122.221-.31.407-.388.139-.061.329-.013.446-.114.087-.078.109-.231.204-.318.191-.14.381-.28.572-.424.113-.13.225-.257.338-.384.351-.319.741-.567 1.105-.855.407-.323.736-.69 1.304-.655.056 0 .164.04.173-.03h.039c-.004-.07-.039-.337.03-.332.161-.288.477-.17.711-.32l.355-.449c.117-.113.29-.109.433-.148.2-.061.278-.197.533-.175.325-.192 1.131-.598 1.278-.912.022-.052.013-.161.078-.153.208-.384.681-.506 1.01-.742.147-.109.303-.318.485-.366.048-.014.16-.057.156.021.03.097-.035.42.087.433.234.07.905-.371.962-.598.013-.053.052-.079-.022-.083v-.04c-.182-.03-.494-.056-.472-.296.398-.166.801-.34 1.161-.603.125-.122.255-.24.381-.362.182-.105.381-.04.585-.092.152-.043.225-.262.368-.34.204-.11.481-.07.685-.18.281-.148.403-.48.689-.636.156-.07.312-.14.472-.21.117-.017.234-.03.351-.044.217-.074.325-.318.563-.336.208-.017.381.149.585.079.104-.092.247-.332.39-.42"></path><path fill="#1D1D1B" d="M120.199 46.625c.238.288.095.973-.243 1.135-.182.087-.715-.236-.697-.458.104-.075.212-.145.316-.219.104-.048.212-.096.312-.148.104-.1.208-.2.312-.31ZM119.193 48.016c.208.07.377.244.607.266.26-.135.481.148.351.388-.191.354-.871.219-1.205.319-.099.061-.195.127-.294.192-.208.013-.351.175-.551.21-.056.008-.216.074-.207-.01-.031-.034-.113-.135-.031-.13.16-.319.524-.306.758-.533.213-.205.135-.523.455-.65.035 0 .078-.013.113-.017v-.035h.004Z"></path><path fill="#fff" d="M117.019 51.766c.039.048.082.091.16.1-.056-.035-.108-.066-.16-.1Z"></path><path fill="#1D1D1B" d="M113.766 52.415c-.009.079-.078.092-.135.118-.004.04-.017.022-.043 0h-.039c-.013-.048-.022-.091-.035-.135l.083.009v-.04c.06.014.112.031.169.053m-2.583-.782-.013.127c-.086-.009-.156-.078-.199-.144l.212.017Zm5.316-.209v.04c-.112.065-.234.488-.091.501.044.018.083.035.122.053v-.04c.212-.161.177-.432-.031-.554Zm1.5-.288c-.07.218-.035.401-.057.628.481.11.546-.506.057-.628Zm4.869.13c.096.01-.039.24-.069.293l-.165-.013v-.044c-.099-.008.039-.244.07-.292.056.017.108.035.164.057Zm-2.339-.671c-.044.026-.343.222-.23.235.1.127.433.197.477-.013.026-.157-.139-.192-.247-.222Zm-5.004-.529c-.139.1-.78.34-.477.629.273.266.524-.074.68-.249.074-.083.2-.183.208-.301h-.039l.005-.048-.377-.03Zm12.568-.37v.039c-.13.048-.312.157-.329.31-.078.144-.03.414-.177.51l-.356.04c-.099.052-.199.109-.303.166-.126.021-.26-.048-.386-.018-.173.044-.385.367-.58.463-.212.1-.477.039-.689.13-.186.084-.741.55-.845.72-.048.11-.1.22-.147.324-.078.118-.243.205-.282.35-.069.252.524.855.741.981.204.074.412.144.62.214.225.1.407.249.658.31.39.044.776.083 1.166.122.112 0 .225-.009.338-.013.259-.17.589-.188.849-.375l.273-.275c.489-.459 1.226-1.052 1.364-1.72.074-.38-.06-.733-.19-1.043-.096-.227-.126-.45-.321-.629-.121-.113-.541-.384-.706-.388-.139-.009-.264.096-.407.039a15.637 15.637 0 0 0-.291-.258Zm.555-1.524c.13.018.251.035.347.11.117.087.121.257.199.37.204.201.403.406.606.607.13.188.152.471.26.68.091.127.182.258.273.39.117.174.143.344.226.532.134.31.338.563.312.943-.009.105-.174.406-.135.41.087.14.243.161.317.306.182.358-.252.759-.577.733-.004.065.013.214-.06.21-.169.113-.226.292-.395.405-.398.27-.723.258-.797.843-.017.14.048.257.035.384-.082-.009-.412-.07-.42 0h-.044l.026.21c-.099.078-.199.16-.299.24l-.416.235c-.086.105-.086.236-.151.354-.117.214-.386.366-.589.48-.187.1-.382-.044-.581-.018a43.91 43.91 0 0 0-.459.184l-.438.026c-.264.044-.533.166-.78.266-.277.114-.39.445-.663.572-.32.144-.71.148-1.039.266-.13.048-.213.166-.308.258a1.655 1.655 0 0 1-.477.3c-.199.075-.498-.034-.68.08l-.364.445c-.19.196-.511.257-.749.362-.122.052-.234.162-.369.183-.052 0-.108 0-.164.009-.039-.057-.117-.113-.109-.179l-.082-.009-.009.083h-.043c.1.528-.632.502-.676.995-.195.057-1.642.72-1.733.367-.069-.262.377-.292.498-.445.048-.17.091-.345.139-.515.091-.223.316-.55.524-.694l.429-.157c.052-.022.083-.092.152-.083l.013-.127c-.069-.026-.451-.14-.446-.166h-.044l.013-.174c.676-.424.728-.066 1.43 0 .147-.088.295-.11.386-.27.095-.175.03-.42.208-.546.251-.08.502-.153.749-.227.143-.062.247-.245.412-.236.208.009.316.231.546.153.229-.083.29-.376.472-.511l.75-.441c.121-.044.246-.083.372-.127.173-.144.347-.283.52-.427.243-.131.52-.214.654-.476.009-.018.018-.035.026-.057a.264.264 0 0 0-.043-.174c-.173-.262-.585-.245-.836-.393-.425-.25-.763-.699-1.101-1.083l-.099-.144c-.035-.122-.065-.244-.1-.366-.065-.14-.13-.284-.195-.428-.095-.354-.121-.616-.459-.808-.052-.03-.204-.2-.208-.126-.165-.03-.295.039-.464.021-.125-.013-.238-.1-.364-.074-.121.022-.229.17-.355.162.03-.358-.035-.48-.42-.393-.356.083-.434.528-.754.633-.23.074-.498.044-.745.07l-.52.083c-.408.039-.828.017-1.218.056-.199.018-.39.066-.602.083l-.992-.026-.386-.21a1.295 1.295 0 0 0-.771-.1c-.606.131-.104.428-.256.633-.108.144-.363.166-.532.184-.217.021-.425-.044-.62-.1-.069-.023-.139-.04-.208-.058-.407.437-.966.572-1.564.568-.152-.013-.303-.022-.451-.035-.195.022-.286.192-.459.231-.178.009-.351.018-.528.022-.954.196-1.526.463-1.985-.629-.069-.14-.138-.274-.208-.414a.361.361 0 0 1 .109-.323c.281-.288.61-.066.97-.114.117-.017.204-.104.29-.183.044-.044.122-.066.126-.127-.03-.065-.017-.213-.108-.222-.135-.083-.286-.07-.369-.227-.017-.035-.047-.066.013-.061.421-.603.711-.49 1.426-.424.086 0 .169-.013.255-.017.122-.03.252.022.377.035l.156-.328.451-.039c.277-.065.485-.301.741-.423.195-.096.424-.136.602-.267.156-.117.169-.344.351-.44.152-.083.277-.018.442.013.42.078.567-.288.598-.638.177-.113.351-.13.546-.2.112-.061.229-.118.346-.18a.31.31 0 0 1 .208.023c.182.082.226.305.46.322.169-.104.342-.209.506-.314.299-.28.044-.76.746-.61.273.056.476.274.775.3.134-.161.386-.336.615-.3.061.008.087 0 .083.065.004.1.013.2.017.3-.225-.012-.503-.025-.684.08-.178.095-.52.955-.811.632-.056-.06-.112-.174-.104-.257l-.251-.022c-.022.17-.052.35.026.489.052.091.134.157.152.262.017.113-.052.205-.061.318-.173-.017-.377.013-.533-.048l-.039-.021c-.221-.162-.294-.393-.615-.332-.056.009-.126 0-.13.074-.134.305.312.471.459.624.052.053.039.184.1.188.195.249.927-.11.775.266-.039.092-.095.148-.121.262-.013.066-.039.162.039.17.334.087.412-.27.602-.436.113-.1.256-.162.39-.214.26-.096.464.017.741.04.264-.053.312.196.446.209-.004.056.009.043-.047.039-.078.14-.174.423.121.38.152-.026.165-.398.048-.406.182-.332 1.096-.585 1.468-.428.191.078.364.288.598.275.187-.013.208-.205.347-.284.113-.065.264-.043.394-.074.173-.048.269-.161.459-.188.364-.048.49.227.811.254.238-.17.684-.324.992-.293.078-.022.156-.044.229-.07.087-.087.178-.174.269-.262.282-.214 1.009-.51 1.382-.475l.225-.066c.247-.127.338-.41.624-.484.2-.048.473-.127.68-.11.143.014.247.079.377.114.2.061.395-.044.555-.122M129.433 55.11h.039c-.004.061-.017.044.039.048-.039.03-.035.04-.087.035l.009-.084ZM114.455 59.977h.039c-.004.06-.017.048.039.052-.039.03-.048.022-.052.078l-.126-.013.009-.083c.035-.008.061-.021.091-.034Z"></path><path fill="#1D1D1B" d="M85.404 72.796c-.03.048-.156.24-.065.249v.043l.165.013c.03-.048.07-.122.138-.117 0-.057.013-.04-.039-.044l.01-.083a3.798 3.798 0 0 1-.209-.061ZM89.2 70.29c-.109.04-.66.201-.49.415.178.236.71-.17.49-.415Zm12.022-3.304c-.034.048-.229.319-.112.328v.043l.203.018c.022-.026.039-.04.087-.035v-.04c-.061-.135-.056-.218-.178-.314Zm3.969-1.597v.039c-.16.109-.126.37.087.388v-.039h.047c-.008-.17-.017-.288-.134-.393m-2.86-.973c-.121.057-.246.113-.372.17-.117.066-.225.157-.347.2-.32.062-.637.123-.962.184-.195.061-.389.127-.58.188-.217.017-.438.04-.654.057-.204.048-.308.318-.529.375-.325.083-.697-.135-.988.048-.082.052-.182.122-.195.231-.021.11-.043.219-.065.323l-.303.546c-.1.284-.165 1.178.186 1.222l.122-.026c.13-.096.16-.642.22-.816.14-.397.317-.786.642-1.07.047-.043.243-.17.234-.087.333.336-.03 1.205-.221 1.55-.143.257-.884.938-.087 1.008.373-.314.628-.624.78-1.087.06-.188.06-.393.156-.567.03-.066.078-.14.165-.118.247.056-.13.798.242.83.06-.11.265-.695.312-.695v-.044h.048c.23.236.108.55.372.686.039.021.07.06.074-.009.082-.04.143-.083.182-.17.056-.227.108-.454.165-.681.06-.153.125-.306.186-.454.36-.04.641.362.615.69l.165.013c.381-.48.55-.974.632-1.642 0-.196.005-.397 0-.598.009-.07.044-.205-.043-.21a1.882 1.882 0 0 0-.152-.052m5.702-1.702-.169-.013v-.044h-.039c.005-.06.065-.117.1-.161.035.074.069.148.108.223m1.781-.184h.043c-.004.061.009.048-.047.044v.04l-.087-.01a1.584 1.584 0 0 0-.035-.13l.126.056Zm2.279-.558c-.031.047-.13.157-.057.165.07.03.204.057.217-.065a3.266 3.266 0 0 0-.16-.1Zm5.519-2.99c.321.048.438.218.325.537-.047.135-.138.187-.294.157-.147-.027-.334-.166-.451-.01-.203.271.26.721-.065.948-.138.04-.277.074-.416.113-.264.105-.242.345-.658.284-.239-.039-.364-.275-.637-.196-.048.013-.191.07-.199.118v.043c-.044.088-.005.336.091.345l-.009.083h-.039c-.243.127-.533.1-.806.162-.334.091-.667.178-1.001.266-.091.214-.108.37-.307.506-.239.162-.416.092-.711.114-.117.043-.238.091-.355.135-.07.013-.139.026-.208.044-.264.096-.442.34-.724.406-.013 0-.026.008-.039.008l-.628.04c-.178-.014-.351-.11-.524-.07l-.342.196c-.273.122-.715.162-.98-.04-.112-.086-.537-.257-.559.014.026.096.078.262.005.345-.078.083-.269.022-.368.035-.109.039-.213.083-.321.126-.264.048-.68.022-.958-.03-.173-.035-.29-.205-.485-.197-.086.018-.177.035-.264.057-.347.03-.693.061-1.014.153-.282.078-.559.214-.84.301-.278.083-.499.04-.746.196a.503.503 0 0 0-.225.258c-.048.122-.052 1.183-.004 1.3.056.145.177.228.268.35.052.07.113.2.217.21.139-.197.191-.341.221-.616 0-.013.004-.026.004-.04h.039l.005-.034.125.013c.031.048.191.266.195.188.074-.04.174-.097.182-.197.057-.1.126-.284.273-.27.052.113.108.305.269.318.121-.17.411-.812.611-.785.372.047.364.92.147 1.143-.143.148-.39.074-.585.1l-.364.118c-.139.027-.264 0-.394.04-.273.087-.429.235-.641.423-.078.066-.152.079-.252.04-.06-.023-.169-.053-.164-.119-.104.053-.152.123-.187.236 0 .197 0 .393-.004.59l-.052.837c.009.075.026.149.035.223-.486-.175-.252-1.047-.243-1.502a7.205 7.205 0 0 0-.061-.344c-.285.1-.303.388-.498.563-.134.122-.303.113-.446.21-.13.082-.186.235-.334.287-.143.01-.286.018-.433.027-.29.113-.26.292-.624.14-.052-.023-.251-.092-.255-.014-.29.42-.269.808-.373 1.323-.06.183-.121.362-.178.541l-.026.362c-.021.066-.073.11-.138.11-.425 0-.286-1.013-.187-1.28.083-.23.3-.445.321-.69-.074-.065-.13-.139-.238-.148-.143.175-.468.598-.702.655-.377.092-.498-.231-.767-.367-.126-.065-.286-.096-.386-.2a.7.7 0 0 1-.156-.358c-.108-.677.217-1.362.273-2-.199-.052-.338.01-.498.11-.316.266-.632.532-.957.794-.078.088-.16.175-.243.262-.33.253-.667.472-1 .716-.114.083-.135.205-.222.288-.138.122-.299.218-.442.34-.19.114-.377.227-.572.34-.225.189-.398.45-.597.63-.265.235-1.89 1.466-2.124 1.444-.025-.039-.342-.41-.36-.2-.038.1.066.388.01.384-.217.27-.616.218-.897.375-.355.192-.447.624-.871.83-.212.1-.472.043-.698.121-.095.057-.19.11-.286.162-.151.022-.286-.057-.428.013-.105.083-.209.17-.313.253-.307.201-.493.162-.628.555-.017.052-.017.126-.09.122-.178.043-.352.091-.525.13-.182.014-.355-.1-.502.027-.226.196-.044.493-.087.76-.043.27-.217.336-.433.436-.113.074-.226.148-.338.227-.26.122-.525.118-.828.087 0-.056.017-.043-.035-.048v-.04c.044-.182-.06-.309-.056-.475 0-.148.091-.275.074-.41-.017-.131-.126-.24-.096-.384.048-.262.464-.293.642-.428.156-.118.35-.244.485-.388.152-.175.299-.354.45-.533.187-.1.373-.205.56-.306.112-.065.238-.165.363-.178.126.013.247.03.369.043.056-.087.208-.436.281-.458.174-.053.23.148.347.222.121.075.316.131.472.136.256 0 .399-.18.615-.258.096-.04.3-.087.312-.227-.039-.362-.589.03-.719.044-.074 0-.2-.122-.113-.114.065-.144.213-.467.304-.58.138-.183.368-.188.537-.314.299-.232.498-.65.87-.804h.014c.173-.048.342.062.52.079v-.04h.043c0-.148-.017-.314.043-.445.096-.213.447-.327.598-.104.018.026.044.06-.008.056-.091.136-.338.267-.217.459.03.048.065.083.126.087.169.048.728-.135.88-.21.055-.03.133-.126.198-.117-.06-.17-.346-.358-.333-.498a.455.455 0 0 1 .286-.022c.13.04.957.52.996.057.009-.092-.047-.183-.104-.249-.208-.249-.364-.087-.615-.06-.13.012-.282-.027-.412-.044-.064-.01-.125.013-.12-.057h-.04c.052-.149.108-.284.221-.393.182-.122.36-.245.542-.371l.68-.528c.121-.118.242-.232.364-.35.23-.157.472-.218.667-.449.03-.04 0-.03.065-.022v-.04h.043c.135.127.269.32.477.341.121-.336-.173-.545-.022-.833.117-.219.334-.258.52-.38l.72-.563.537-.249c.216-.13.364-.327.61-.384.2-.044.339.105.52.127.126-.022.256-.04.382-.057.281-.018.563-.03.845-.048.125-.057.25-.048.372-.114.074-.06.148-.122.226-.188.12-.07.242-.144.363-.213a9.63 9.63 0 0 0 .3-.288c.16-.127.476-.192.684-.223.217-.03.446.048.654.065.225-.109.451-.218.672-.331.134-.022.264-.048.398-.075.364-.157.689-.44 1.079-.532.299-.07.663.013.966-.07.204-.061.312-.27.498-.367.273-.143.577-.052.876-.14l.26-.156c.173-.092.359-.083.576-.066.329-.113.719.144.901.367.121.148.16.275.386.297.229-.07.416.14.615.17l.346-.053c.165.018.33.035.494.057.187-.109.481-.231.698-.244h.334l.463-.105c.048-.009.139-.048.13.026.178.18-.295.611.282.66.039-.04 1.087-.511.511-.638-.104-.022-.637.114-.624-.052-.022-.083-.056-.428-.004-.424.234-.358.424-.035.637.061.225.1.706.131.827-.126.052-.118.009-.231.03-.354.026-.083.052-.166.074-.253.074-.026.52-.188.511-.083.304.201-.073.716.061.725v.039c-.061 0-.043-.017-.048.04l.083.008v-.04c.086-.087.164-.174.247-.257.13-.087.329-.126.39-.292.039-.11.026-.245.034-.362.135-.044.243-.096.39-.1h.316c.117-.031.169-.167.278-.215l.333-.052c.174-.048.295-.162.455-.231.122-.031.239-.066.36-.096.238-.11.199-.42.489-.49.208-.052.295.184.49.201.1-.122.243-.331.39-.388.338-.162.481-.04.697-.327ZM82.835 73.844l.247.065a.825.825 0 0 1-.273.742c-.095.057-.19.114-.286.166-.1.092-.082.249-.186.328-.234.17-.685.2-.65-.214.72-.083.251-.306.511-.607.213-.162.425-.319.637-.48Z"></path><path fill="#1D1D1B" d="M83.403 75.04c.087.09.286.4.286.536 0 .332-.507.55-.767.572-.173.013-.346-.087-.516-.044-.104.061-.208.122-.311.188-.091.03-.182.065-.278.1-.689.24-1.403.288-2.14.415-.243.074-.494.153-.74.227-.161.009-.425-.03-.573-.079-.07-.026-.134-.056-.208-.083v-.039c.096-.1.152-.205.29-.24.204-.057.365.022.577.04.26.021.641-.153.819-.341.039-.035.086-.07.017-.074-.017-.066-.039-.214-.108-.223l.008-.083c.139-.044.3-.1.42-.196.117-.1.29-.542.507-.42.208.118.278.468.56.49-.04.052-.274.27-.191.279l-.009.083c.152-.03.295-.053.429-.136.104-.06.208-.2.33-.218.428-.065.402.35.874-.013.03-.026.135-.074.048-.083.238-.323.33-.432.676-.659Z"></path><path fill="#F11731" d="M53.581 43.973c.481.122 1.049.1 1.53.24.368.162.736.328 1.1.49.156.051.317.108.473.165a22.552 22.552 0 0 1 3.258 1.72c.22.14.403.323.61.484.182.122.364.245.542.362.19.162.381.328.568.49.416.318.944.663 1.265 1.117.377.528.71 1.091.988 1.672.143.3.394.54.537.85.147.315.264.63.437.935l.555.847c.377.628.689 1.357 1.17 1.938.151.144.307.288.46.432.38.467.766.934 1.147 1.405.239.245.542.402.789.624.65.58 1.234 1.218 1.906 1.768.386.319 1.057.62 1.2 1.161.056.214-.022.406-.056.62-.04.35-.078.698-.113 1.048l-.09.458c-.035.908-.183 1.833-.313 2.732v.25l-.078.375c-.013.157.022.314-.026.458-.121.375-.437.716-.654 1.039-.355.515-.637 1.06-1.031 1.558-.121.231-.247.463-.368.69-.204.37-.503.737-.758 1.082-.109.144-.313.24-.464.328l-.46.366c-.463.45-.836.952-1.32 1.388-.36.323-.889.585-1.3.812-.533.293-1.08.637-1.66.82-.507.158-1.044.245-1.577.354-.633.127-1.274.354-1.963.319-.559-.03-1.044-.694-.927-1.249.013-.065.07-.209 0-.213.225-.25.559-.716.628-1.048.048-.253.009-.502.1-.742.195-.52.503-1.087.819-1.528l.429-.445c.203-.292.403-.563.645-.847.052-.065.104-.126.152-.192v-.039c.338-.345.853-.978.966-1.44.022-.11.113-.424-.07-.433-.047 0-.54.42-.65.485-.385.227-.822.384-1.208.602-.208.118-.342.332-.537.454l-.784.371-.624.446c-.503.327-1.04.645-1.517 1.02-.117.097-.16.25-.233.367a2.119 2.119 0 0 1-.564.568c-.2.144-.437.179-.667.244a5.98 5.98 0 0 0-1.395.546c-.2.096-.399.192-.594.288-.32.11-2.1.624-2.131.939.147.082.299.152.49.17l-.014.126c-.177.066-.355.07-.541.118-.303.074-.611.183-.923.236-.39.022-.784.043-1.174.07-.212.022-.43.043-.641.07-.252-.01-.425-.184-.646-.25-.19-.06-.394.018-.58-.034-.547-.157-1.335-1.026-1.261-1.637.156-.196.247-.45.455-.624.208-.18.485-.27.727-.384.386-.184.806-.389 1.14-.672.455-.385.931-.821 1.282-1.288.087-.148.178-.297.265-.45.199-.28.463-.541.658-.816l.182-.301c.217-.27.416-.515.602-.803.165-.253.312-.31.343-.65-.473.047-.56.222-.936.449-.122.061-.243.118-.364.179l-.416.288c-.143.048-.282.1-.425.144-.225.11-.403.253-.632.345-1.66.659-3.354 1.218-5.065 1.733-.464.17-.927.34-1.386.51-.156.035-.312.07-.464.1l-.75.25c-.281 0-.563.008-.844.008-.386 0-.746.061-1.105.088h-.455a1.923 1.923 0 0 0-.507.083c-.182.056-.412.196-.615.178-.269.035-.498.118-.745.197-.126.026-.252.052-.373.079-.585.205-1.928.768-2.552.467-.225-.11-.455-.32-.62-.511-.138-.157-.238-.35-.42-.445-.242-.131-.624-.24-.927-.223-.186.009-.39.066-.593.035-.373-.061-.728-.458-.893-.786-.03-.06-.156-.349-.06-.34.077-.175.225-.266.376-.38.109-.083.221-.161.33-.24.238-.114.459-.061.732-.092.238-.026.511-.13.719-.235.2-.105.381-.25.572-.363.117-.048.234-.091.347-.144.376-.187.732-.37 1.104-.572.278-.148.572-.192.845-.344.68-.38 1.309-.873 1.971-1.297.702-.454 1.313-1.065 2.236-.986.143-.061.286-.122.425-.183a9.8 9.8 0 0 1 .316-.284c.139-.053.286-.03.42-.096.087-.057.178-.118.26-.175.472-.257.97-.52 1.46-.733.091-.04.355-.275.425-.27l.008-.084c-.472-.026-.883.136-1.325.197l-.88.091c-.589.083-1.187.267-1.763.367-.208.022-.416.044-.624.061-.247.061-.498.127-.745.188l-.542.04-1.196.183c-.853.126-1.69.353-2.538.497-.243.04-.499 0-.746.026-.346.035-.702.127-1.04.192-.147.009-.294.018-.446.022-.2.035-.368.131-.572.166-.312.052-.632.03-.961.079a25.828 25.828 0 0 1-3.99.288c-.274 0-.508-.079-.746-.131-.793-.175-1.495-.354-2.054-.882-.225-.21-.45-.716-.398-1.034.008-.048.043-.083-.022-.088l.234-.38c.256-.17.511-.336.767-.51.1-.1.195-.201.29-.301.226-.14.45-.28.676-.424l.641-.249c.356-.091.71-.187 1.062-.279.078-.03.49-.24.48-.162h.04l.004-.034c.269-.03.464-.166.71-.24.195-.062.39-.092.581-.17.152-.07.308-.136.46-.206l.359-.078c.251-.11.507-.214.758-.323.156-.031.312-.066.468-.096.36-.114.685-.306 1.027-.468.494-.235.992-.423 1.464-.72.442-.279.919-.593 1.421-.702.057-.014.17 0 .174-.07h.039c.273-.074.541-.153.814-.236l.325-.144c.316-.127.641-.183.966-.306.295-.113.624-.23.936-.292l1.768-.275c.541-.148 1.061-.52 1.586-.729.468-.188.922-.38 1.373-.62.126-.065.256-.13.381-.196.052-.04.135-.105.1-.184-.104-.235-.572.01-.706.062-.252.126-.507.253-.758.384-.451.052-.902.109-1.352.161l-1.85.51c-.702.184-1.304.63-2.006.8-.308.083-.62.166-.927.244-.208.009-.416.022-.624.03-.13.027-.26.049-.39.075l-1.43.157c-.169.03-.303.114-.46.157l-.623.066c-.303.048-.585.122-.871.192-.195.026-.386.048-.58.07l-.477.117c-.2.03-.394.066-.594.096-.286.057-.528.214-.801.306-.308.105-.637.13-.936.236-.299.109-.563.31-.884.353-.312.044-.563-.205-.814-.297-.191-.07-.464-.06-.646-.021-.858.17-1.733.318-2.59.484l-.915.092c-.46.074-.88.187-1.348.257-.32.013-.64.022-.961.03-.412.04-.767.21-1.157.276-.143-.009-.282-.013-.425-.022-.424.022-.836.065-1.27.096-.68.048-1.33.31-2.005.288-.455-.017-.815-.262-1.23-.367-.248-.043-.495-.091-.741-.135l-1.443-.393c-.308-.07-.585-.043-.854-.152a4.464 4.464 0 0 1-.862-.472c-.09-.074-.182-.153-.273-.231-.437-.245-.875-.49-1.313-.733-.394-.201-.918-.097-1.269-.367-.16-.136-.325-.267-.49-.402-.416-.34-1.308-.838-1.156-1.545.03-.14.143-.227.216-.34.148-.236.381-.34.676-.315.26-.104 1.005.088 1.339.118.212-.126.502-.17.771-.144.182-.074.498 0 .715.022.256-.1.862-.026 1.174.026.139.026.273.057.412.083.104-.026.208-.057.312-.087.225-.03.502 0 .74.035.018 0 .035.008.048.008v-.039c.277 0 .542 0 .845.03a2.26 2.26 0 0 1 .81-.139c.139-.026.277-.057.412-.087.32-.092.61-.18.957-.236.2-.035.377-.118.602-.096.252-.1.65-.153.936-.131.126 0 .252 0 .382-.009.199-.087.533-.122.767-.1.086 0 .168-.013.255-.018l1.066-.366c.68-.24 1.395-.428 2.08-.65.303-.101.524-.31.879-.28.312-.188.654-.166.992-.288l.997-.389c.143-.034.281-.07.424-.1.152-.057.304-.113.455-.175.217-.052.43-.109.646-.161.277-.1.554-.2.827-.306.165-.039.334-.082.494-.122a96.035 96.035 0 0 1 2.166-.703c.17-.065.334-.13.503-.2.234-.053.472-.105.706-.162.312-.07.607-.262.953-.231.083-.009.17-.013.252-.018.195-.113.455-.126.68-.174.303-.066.554-.184.905-.153.048-.03.221-.14.217-.065h.043l.005-.035c.754-.057 1.42-.555 2.227-.485l.455-.118c.303-.096.563-.257.922-.227v-.039c.243-.048.395-.24.629-.297 1.16-.27 2.36-.51 3.47-.93.715-.27 1.27-.763 2.132-.685.242-.14.931-.34 1.248-.314.298-.192 1.048-.314 1.416-.397.252-.057.468-.201.715-.27.247-.07.507-.093.754-.15.308-.095.62-.196.927-.296.433-.144.871-.231 1.322-.34.463-.114.979-.341 1.494-.293.1 0 .2-.009.3-.017.168-.075.428-.049.632-.031.121-.057.316-.057.468-.044.16-.078.394-.052.593-.03.109-.057.247-.061.382-.053.086 0 .169-.013.25-.017.278-.017.543-.022.811-.026"></path></g><defs><clipPath id="a"><path fill="#fff" d="M0 0h146v120H0z"></path></clipPath></defs></svg> 